<?xml version="1.0" standalone="no"?>
<!DOCTYPE svg PUBLIC "-//W3C//DTD SVG 1.1//EN" "http://www.w3.org/Graphics/SVG/1.1/DTD/svg11.dtd" >
<svg xmlns="http://www.w3.org/2000/svg">
<metadata>
Created by FontForge 20120731 at Fri Feb 26 10:31:24 2016
 By Ads
</metadata>
<defs>
<font id="iconfont" horiz-adv-x="1024" >
  <font-face 
    font-family="iconfont"
    font-weight="500"
    font-stretch="normal"
    units-per-em="1024"
    panose-1="2 0 6 3 0 0 0 0 0 0"
    ascent="896"
    descent="-128"
    x-height="792"
    bbox="-0.207207 -212 1434 864"
    underline-thickness="50"
    underline-position="-100"
    unicode-range="U+0078-E6B3"
  />
<missing-glyph horiz-adv-x="374" 
d="M34 0v682h272v-682h-272zM68 34h204v614h-204v-614z" />
    <glyph glyph-name=".notdef" horiz-adv-x="374" 
d="M34 0v682h272v-682h-272zM68 34h204v614h-204v-614z" />
    <glyph glyph-name=".null" horiz-adv-x="0" 
 />
    <glyph glyph-name="nonmarkingreturn" horiz-adv-x="341" 
 />
    <glyph glyph-name="x" unicode="x" horiz-adv-x="1001" 
d="M281 543q-27 -1 -53 -1h-83q-18 0 -36.5 -6t-32.5 -18.5t-23 -32t-9 -45.5v-76h912v41q0 16 -0.5 30t-0.5 18q0 13 -5 29t-17 29.5t-31.5 22.5t-49.5 9h-133v-97h-438v97zM955 310v-52q0 -23 0.5 -52t0.5 -58t-10.5 -47.5t-26 -30t-33 -16t-31.5 -4.5q-14 -1 -29.5 -0.5
t-29.5 0.5h-32l-45 128h-439l-44 -128h-29h-34q-20 0 -45 1q-25 0 -41 9.5t-25.5 23t-13.5 29.5t-4 30v167h911zM163 247q-12 0 -21 -8.5t-9 -21.5t9 -21.5t21 -8.5q13 0 22 8.5t9 21.5t-9 21.5t-22 8.5zM316 123q-8 -26 -14 -48q-5 -19 -10.5 -37t-7.5 -25t-3 -15t1 -14.5
t9.5 -10.5t21.5 -4h37h67h81h80h64h36q23 0 34 12t2 38q-5 13 -9.5 30.5t-9.5 34.5q-5 19 -11 39h-368zM336 498v228q0 11 2.5 23t10 21.5t20.5 15.5t34 6h188q31 0 51.5 -14.5t20.5 -52.5v-227h-327z" />
    <glyph glyph-name="uniE600" unicode="&#xe600;" 
d="M822.5 710q-64.5 0 -110 -46t-45.5 -110q0 -35 14 -65l142 -279l142 279q14 30 14 65q0 64 -46 110t-110.5 46zM823 460q-19 0 -36.5 7.5t-30 20t-20 30t-7.5 36.5t7.5 36.5t20 30t30 19.5t36.5 7q38 0 65.5 -27t27.5 -66q0 -26 -12.5 -47.5t-34 -34t-46.5 -12.5z
M869 165l57 -114l-144 -72l-48 242l8 8l1 1l-30 58l-15 -15l-188 125l-187 -125l-125 125l-187 -375l250 -125l249 125l250 -125l250 125l-105 211zM239 -21l-144 72l120 241l64 -63l8 -8zM479 77l-174 -87l45 226l8 5l121 81v-225zM542 77v225l121 -81l8 -5l45 -226z" />
    <glyph glyph-name="uniE601" unicode="&#xe601;" 
d="M502 30q-9 0 -40 25.5t-70.5 68.5t-77.5 92.5t-64 105.5t-26 99q0 56 22 107.5t59.5 88.5t89 59t107.5 22q38 0 74 -10t66.5 -28t56 -43.5t43.5 -56t28 -66t10 -73.5q0 -104 -133 -260q-76 -91 -128 -123q-12 -7 -17 -8zM502 652q-97 0 -165.5 -71t-68.5 -169
q0 -39 33 -99t75 -110t79 -86.5t47 -36.5q11 0 48.5 37t79 87t74 109.5t32.5 98.5q0 98 -68.5 169t-165.5 71zM403 423q0 41 29 69.5t70 28.5t70 -28.5t29 -69.5q0 -20 -7.5 -38t-21 -31.5t-32 -21t-38.5 -7.5q-27 0 -50 13t-36 35.5t-13 49.5zM566 423q0 26 -19 44.5
t-45 18.5t-44.5 -18.5t-18.5 -44.5q0 -13 5 -24.5t13.5 -20t20 -13.5t24.5 -5q26 0 45 18.5t19 44.5zM311 168q5 -14 13 -27h-52l-122 -154h317q-1 -2 -3 -4.5t-5 -4.5l-1 -4q-1 -10 6 -17l24 -13q6 -6 14 -6t14 6l24 13q7 7 6 16q0 1 -0.5 2t-0.5 3q-1 1 -2.5 2t-2.5 2
l-3 3l-2 2h337l-138 154h-48q8 13 13 27h61l199 -216h-374q-2 -2 -3.5 -4t-3.5 -4l-48 -28q-11 -12 -27.5 -12t-28.5 12l-48 28l-6 8h-355l179 216h67z" />
    <glyph glyph-name="uniE602" unicode="&#xe602;" horiz-adv-x="1025" 
d="M512 700q-109 0 -201 -53.5t-145.5 -145.5t-53.5 -201q0 -81 31.5 -155.5t85 -128t128 -85t155.5 -31.5q109 0 201 53.5t145.5 145.5t53.5 201q0 36 -6.5 71.5t-18.5 68t-29.5 62.5t-39.5 56t-48 48t-56 39.5t-62.5 29.5t-68 18.5t-71.5 6.5zM692 260h-140v-140h-80v140
h-140v80h140v140h80v-140h140v-80z" />
    <glyph glyph-name="uniE603" unicode="&#xe603;" 
d="M158 632q8 24 37 24h636q17 0 25.5 -9t8.5 -26v-29v-30v-27v-30v-28q0 -29 -18 -47.5t-47 -18.5h-289h-289q-12 0 -22 3.5t-18.5 10t-14 16t-8.5 21.5q0 1 -1 2v1v167zM511 478h294h7q9 2 9 11q0 3 -1.5 5.5t-3.5 3.5t-5 2h-6h-187h-212h-188q-16 0 -16 -11t16 -11h4h1h1
h1h1h1h1h1h1h1h1h1h1h1h1h1h1h1h1h1h1h1h1h1h1h1h1h1h1h1h1h1h1h1h1h1h1h1h1h1h1h1h1h1h1h1h1h1h1h1h1h1h1h1h1h1h1h1h1h1h1h1h1h1h1h1h1h1h1h1h1h1h1h1h1h1h1h1h1h1h1h1h1h1h1h1h1h1h1h1h1h1h1h1h1h1h1h1h1h1h1h1h1h1h1h1h1h1h1h1h1h1h1h1h1h1h1h1h1h1h1h1h1h1h1h1h1h1h1h1
h1h1h1h1h1h1h1h1h1h1h1h1h1h1h1h1h1h1h1h1h1h1h1h1h1h1h1h1h1h1h1h1h1h1h1h1h1h1h1h1h1h1h1h1h1h1h1h1h1h1h1h1h1h1h1h1h1h1h1h1h1h1h1h1h1h1h1h1h1h1h1h1h1h1h1h1h1h1h1h1h1h1h1h1h1h1h1h1h1h1h1h1h1h1h1h1h1h1h1h1h1h1h1h1h1h1h1h1h1h1h1h1h1h1h1h1h1h1h1h1h1h1h1h1h1h1h1
h1h1h1h1h1h1h1h1h1h1h1h1h1h1h1h1h1h1h1h1h1h1h1h1h1h1h1h1h1h1h1h1h1zM512 455h-24h-23h-24h-23h-24h-24h-24h-23h-24h-85q-5 0 -8.5 -3t-3.5 -7q0 -11 12 -12h6h569h21q10 1 11 10q1 8 -7 11q-2 1 -8 1h-294zM512 611h-54q-7 0 -11 -7q-1 -1 -1 -4.5t2 -5.5q5 -5 11 -5
h105q14 0 14 11t-14 11h-52zM673 -57q-4 3 -5.5 8t-1 9.5t-0.5 9.5h-1q-11 -8 -18 -1q-6 8 3 17v1h1q19 14 15 42q0 4 -4.5 7t-8.5 1q-17 -9 -18 -23q-1 -4 -4 -17q-2 -5 -5.5 -7.5t-7.5 -1.5q-10 3 -8 14q0 1 1 9q-1 -1 -3.5 -2.5t-3.5 -2.5l-4 -2q-1 -1 -3 -2
q-10 -6 -16 3q-5 9 5 16q2 2 7 5t6 3v1l-6 2q-11 4 -9 14q3 10 14 8q2 -1 4 -1t3.5 -0.5t3.5 -1t3 -1.5h4q1 -1 3 -1q3 -3 7 -1.5t5.5 2t5.5 3.5t5 4q3 1 1 9.5t-4 10.5q-7 6 -14 7t-15 -2q-3 -2 -16 -5q-12 -2 -14 9q-3 10 8 13q1 0 10 2q-12 8 -13 9q-11 6 -6 16
q6 10 17 3q2 -1 3 -2t3 -2t3 -2v3v3q-2 11 8 13.5t13 -8.5l6 -21q0 -2 0.5 -3.5t1.5 -2.5l2 -2q1 -1 3 -2q4 -2 7 -4q5 -5 10 -5t10 5v25q0 3 -3 7l-4 4q-2 2 -4.5 5t-3.5 4q-10 10 -3.5 17.5t18.5 -0.5v5v6v4q1 12 11 12q5 0 8 -3.5t3 -8.5v-15q1 0 2 1q2 1 3 1q4 3 8 2.5
t7 -3.5q6 -7 -1 -15q-2 -2 -7 -7.5t-8 -8.5q-1 -2 -2 -4.5t-1 -5.5q-1 -2 -0.5 -6.5t-0.5 -6.5q-1 -13 10 -17q14 8 15 9l4 7q2 5 4.5 14.5t2.5 12.5q4 12 14.5 9t7.5 -15l-2 -9q14 9 15 10q11 6 16 -3q6 -9 -4 -16l-7 -5q-5 -3 -6 -3v-1q1 -1 2 -1l5 -1q10 -4 8 -13
q-3 -11 -14 -9l-5 1q-1 1 -4 1.5t-4.5 1t-4 1t-4.5 1.5q-8 2 -14 -3q-2 -1 -6 -4l-3 -2q-12 -7 0 -17q9 -7 18 -8.5t20 2.5q2 2 8 3h2q9 0 13 -8q1 -5 -1 -8.5t-7 -5.5l-8 -2l10 -6q12 -7 6.5 -16.5t-17.5 -2.5q-1 1 -2.5 1.5t-4 2t-3.5 2.5l2 -9q1 -5 -1.5 -8.5t-6.5 -5.5
q-3 0 -5.5 0.5t-5 2.5t-2.5 5q-1 4 -3 11q-3 10 -4 14q-1 2 -2 3l-2 4l-2 2q-5 4 -12 7q-6 3 -9 2q-6 -2 -7 -11q-3 -26 17 -42q5 -4 4 -12q-1 -7 -7 -8t-13 4q-1 -5 -0.5 -9.5t-1 -9.5t-5.5 -8h-9zM688 66q0 5 -3 8t-8 3q-11 0 -11 -11q0 -3 2 -5.5t4.5 -4t5.5 -1.5
q4 0 7 3.5t3 7.5zM477 176q41 -26 46 -29q1 -1 2 -1q2 -2 4 -3q8 -7 3 -15q-6 -9 -15 -4q-1 1 -37 24q-1 1 -7 5q5 -28 6 -32q0 -1 0.5 -3.5t1.5 -4.5q2 -11 -9 -14q-10 -2 -13 10q-7 34 -11 54q-1 7 -7 11l-10 6q-5 3 -10.5 7t-9.5 6t-7 0.5t-3 -5.5v-16v-16v-15q0 -3 4 -7
q5 -5 11 -11.5t12.5 -13.5t11.5 -11q9 -10 1 -18q-7 -7 -17 2l-23 23v-7v-7v-7v-6v-4v-7q0 -13 -11 -12q-11 0 -11 12v33v3v1q-3 -2 -7.5 -6.5t-8 -8.5t-7.5 -7q-9 -10 -16.5 -2t1.5 17q2 3 15 16t19 20q4 4 4 7v10v10v10v10v9q-8 4 -9 4q-3 1 -6 0q-15 -9 -26 -17
q-3 -2 -4 -7q-2 -8 -13 -58q-3 -14 -13 -12q-5 1 -7 5.5t-1 10.5q1 4 8 42q-1 -1 -4 -3l-9 -6q-3 -2 -8 -5t-9 -6q-9 -6 -12 -7q-12 -8 -18 1q-2 3 -2 6t2.5 6t6.5 5q6 4 18.5 12.5t18.5 12.5q2 1 4 3l3 1q-32 10 -35 11q-13 4 -10 14.5t16 6.5q5 -1 12.5 -3.5t12.5 -4
t12 -3t12 -3.5l9 1q5 3 12 8l11 7q2 1 2.5 2.5t1.5 5.5q1 8 -9 16l-2 2q-20 17 -45 7q-4 -2 -8.5 -3.5t-8.5 -2.5t-9.5 -2t-8.5 -2q-11 -3 -14 6q-4 11 8 15q4 1 11 3t8.5 2.5t20.5 6.5q-5 3 -13.5 8t-15 9.5t-12.5 8.5q-1 1 -2 1q-2 2 -4 3q-8 7 -2.5 15.5t14.5 2.5
q5 -3 10.5 -6.5t12.5 -8t10 -6.5q1 0 7 -4q-6 32 -8 38q-1 5 0 8q2 8 10 8q5 0 7.5 -3t3.5 -8q1 -3 2 -8.5t2 -9.5t2 -9t2 -9t2 -9t2 -9q1 -6 6 -10q5 -3 14.5 -9t14.5 -9q3 -2 4.5 -2t4.5 2t4 3q3 1 3 6v40q0 6 -4 10q-5 5 -10.5 11t-12.5 13.5t-11 10.5q-10 10 -2 18
q2 2 4 2.5t4 0.5t4.5 -1.5t4.5 -3.5q3 -3 7 -6.5t8.5 -8.5t7.5 -8v33v2v4q1 11 11 12q4 0 7.5 -3t3.5 -9v-31v-8l9 8l8 10l8 7q8 7 15 0t1 -15l-4 -4q-29 -30 -33 -35q-4 -4 -4 -9v-40q0 -6 1 -7.5t6 -4.5l36 24q2 1 2.5 3t1.5 4q1 5 11 53q3 14 13 12q11 -2 8 -16
q0 -2 -8 -38q4 2 9.5 5.5t9 6t8 5.5t8.5 6q9 5 10 6q4 2 8 1.5t7 -4.5q6 -9 -4 -16q-3 -3 -7.5 -5.5t-10.5 -6.5t-8 -5q-5 -4 -10 -7l-15 -9q26 -8 29 -9h2l4 -2h2q2 -1 4 -1q3 -1 5.5 -3t3 -5t-0.5 -6q-3 -11 -14 -7q-3 0 -23 6t-31 9q-5 1 -10 -2l-25 -15
q-4 -3 -3.5 -10.5t4.5 -10.5l2 -1l4 -3q20 -19 48 -7q3 1 32 9q5 1 8 0.5t5 -2.5t3 -5q2 -5 -1 -8.5t-9 -5.5q-3 -1 -7 -2t-8 -2.5t-7.5 -2.5t-8 -2t-8.5 -3zM401 222q0 11 -11 11t-11 -11q0 -5 3.5 -8.5t8.5 -2.5q2 0 4.5 1.5t4 4t1.5 5.5z" />
    <glyph glyph-name="uniE604" unicode="&#xe604;" 
d="M746 750q6 0 15 -1t15.5 -1.5t14.5 -1t15.5 -1t14.5 -1.5q12 -1 20 -10q1 -1 103 -102q12 -12 11 -28v-4v-5q-2 -14 1.5 -40.5t3.5 -37.5q-1 -19 -12 -30l-7 -6l-468 -471l-3 -3q-2 -2 -3.5 -4t-3.5 -3q-19 -13 -34 -6q-21 9 -25 30q-3 21 14 38q17 16 120 120
q274 275 328 329q22 21 14 59h-1l-1 1q0 8 0.5 11.5t-3.5 9.5t-6 8l-7 8l-8 7l-10 9q-5 6 -9.5 11t-9.5 10t-10.5 10t-9.5 10q-2 2 -4 3l-4 2q-2 1 -4 1.5t-5 0.5q-10 0 -41 4q-11 2 -21 -8q-17 -18 -34 -35l-46 -45l-34 -35q-253 -255 -343 -345q-1 -1 -3.5 -4t-4 -4
t-3.5 -2.5t-4 -1.5h-4h-4q-1 0 -3.5 -0.5t-4.5 0t-4 0.5t-4 0.5t-4 1.5l-4 2q-14 9 -18 26t6 30q1 0 12 12q367 368 456 459q13 13 26.5 19t29.5 3h12v1zM66 -105q0 3 1 7t2 9t1 8q3 21 13 60.5t12 50.5q11 50 19 84l15 57q4 14 11.5 19t24.5 6q9 1 27 -10q8 -5 9 -12
q0 -1 0.5 -5t0.5 -5.5t0.5 -4.5t0 -5t-0.5 -5t-0.5 -5t-1.5 -4q-1 -3 -1.5 -10t-2.5 -10q-3 -3 -3.5 -9.5t-1.5 -8.5q-3 -8 -5 -18t-4.5 -22t-4.5 -19q0 -2 -1.5 -4.5t-1.5 -3.5q-5 -16 -4 -20.5t11 -15.5l26 -26q11 -15 34 -10q2 1 4 1h4l4 2h4l4 2h4l4 2h4q2 1 3.5 2
t3.5 1q4 2 9 3t9 1t9 1.5t8 3.5q2 1 33 9q16 4 31.5 -2.5t25.5 -20.5q9 -13 -3 -34q-3 -4 -6.5 -7.5t-7.5 -6.5t-9.5 -4.5t-11.5 -2.5q-24 -1 -44 -9q-11 -5 -32 -9t-23 -4q-2 -1 -7 -2t-7.5 -2t-7 -2t-7.5 -1.5t-7 -1.5t-7.5 -1.5t-7.5 -1.5q-2 0 -9 -1.5t-10.5 -2t-9 -2
t-10 -3.5t-8.5 -5q-7 1 -13 0t-14 -3t-11.5 -3t-14 -4.5t-11.5 -3.5q-4 4 -14 4.5t-14 4.5q-13 14 -12 29v4v2zM316 130l3 6l3 7q2 3 4 5q0 1 10 10q321 324 433 436l5 4l4 6q2 1 5 3t6 3q9 3 12.5 2.5t9.5 -7.5q9 -12 -1 -23l-2 -2l-4 -4l-3 -3q-222 -224 -445 -448l-4 -3
l-4 -5q-2 -2 -4 -3q-12 -5 -18 -1q-11 8 -10 17z" />
    <glyph glyph-name="uniE605" unicode="&#xe605;" 
d="M390 266h-200q-21 0 -39.5 -10.5t-29.5 -29t-11 -39.5v-200q0 -33 23.5 -56.5t56.5 -23.5h200q22 0 40.5 10.5t29 29t10.5 40.5v200q0 33 -23.5 56t-56.5 23zM410 7q0 -17 -11.5 -28.5t-28.5 -11.5h-160q-11 0 -20 5t-14.5 14.5t-5.5 20.5v160q0 16 12 28t28 12h160
q17 0 28.5 -12t11.5 -28v-160zM807 266h-200q-22 0 -40.5 -10.5t-29 -29t-10.5 -39.5v-200q0 -33 23.5 -56.5t56.5 -23.5h200q33 0 56.5 23.5t23.5 56.5v200q0 33 -23.5 56t-56.5 23zM827 7q0 -17 -12 -28.5t-28 -11.5h-160q-17 0 -28.5 11.5t-11.5 28.5v160q0 16 11.5 28
t28.5 12h160q16 0 28 -12t12 -28v-160zM391 700h-200q-21 0 -39.5 -10.5t-29.5 -29t-11 -40.5v-200q0 -11 3 -21t8 -19t12.5 -16.5t16.5 -12.5t19 -8t21 -3h200q33 0 56.5 23.5t23.5 56.5v200q0 13 -4 25.5t-11.5 22t-17 17t-22 11.5t-25.5 4zM411 440q0 -16 -11.5 -28
t-28.5 -12h-160q-6 0 -12 2t-11 6t-9 9t-6 11t-2 12v160q0 11 5.5 20t14.5 14.5t20 5.5h160q11 0 20 -5.5t14.5 -14.5t5.5 -20v-160zM947 627l-71 65l-180 -213l-124 97l-64 -79l198 -155z" />
    <glyph glyph-name="uniE606" unicode="&#xe606;" 
d="M393 399q-5 -3 -13.5 -9.5t-15 -11.5t-12.5 -9q-6 -3 -12.5 -6.5t-12.5 -6t-13 -5.5q-13 -5 -24 7q-45 47 -88 94q-14 14 -4 31q10 15 29 11l4 -1l2 5q1 8 0 10t-8 4q-28 9 -22 38q1 3 2 7t2.5 8t2.5 7t3 8t3 7t3 3t4 1q22 -3 51 -8q1 0 2.5 -1t1.5 -2q3 -14 3.5 -23.5
t-1.5 -23.5q-3 -9 -7.5 -14.5t-11 -8t-14.5 -1.5q-6 0 -8 -6q-4 -14 8 -26q7 -6 59 -61q7 7 8 7q65 60 71 66q17 18 55 28q2 1 4 1h3h51q23 1 50 -15q3 -2 6 -5.5t6 -7.5q12 -18 34.5 -52.5t32.5 -49.5q6 -10 13.5 -17.5t22.5 -21.5t16 -15q2 -2 34 -31h-2h-4h-51
q-3 0 -5.5 1t-5.5 2q-13 9 -24 18.5t-29 27.5l-22 22q-1 0 -13 12q-1 -3 -1 -7.5t-0.5 -7.5t-1 -6.5t-0.5 -6.5q-1 -5 -1.5 -12t-1 -12.5t-1.5 -12t-2 -12.5q0 -6 -7 -6h-130q-7 2 -8 6q-2 33 -5 59q-1 5 -1.5 9.5t-2 11t-1.5 10.5zM278 553q-3 19 -3 22q0 2 -1.5 3.5
t-3.5 1.5q-23 4 -45 6q-5 1 -7 -3q-8 -24 -10 -32q-1 -4 -1 -7.5t0.5 -6.5t1.5 -5.5t2.5 -5t4 -4.5t5 -3.5t6 -2.5t7.5 -2q18 -4 28.5 2t13.5 21q0 1 2 16zM475 192h-93h-223q-14 0 -20 6t-6 20v4v4v3v3v4v3q1 23 23 23h164h466h4h4h3q6 -1 10 -3.5t6.5 -7t2.5 -10.5v-5v-6
v-5v-5v-6q0 -11 -5.5 -16t-16.5 -5q-19 0 -42.5 -0.5t-38.5 -0.5h-45h-40h-48h-57h-48zM424 609q1 13 3.5 25t9.5 22q19 32 55 23q18 -5 28 -17.5t11 -29.5q0 -54 -46 -83q-14 -9 -27 -5.5t-22 18.5q-11 18 -12 47zM291 162h46v-218h-46v218zM183 162h46v-218h-46v218z
M399 162h47v-218h-47v218zM507 -56v218h47v-218h-47zM662 -57h-46v219h46v-219zM724 162h46v-218h-46v218zM245 521q-2 0 -5 1l-10 2q-5 2 -8.5 7t-4 11t2.5 11q0 1 1.5 1.5t2.5 0.5q10 -1 19.5 -2t18.5 -3q4 0 4 -4q2 -10 -4.5 -17.5t-16.5 -7.5z" />
    <glyph glyph-name="uniE607" unicode="&#xe607;" 
d="M663 -46q-8 0 -13.5 1t-8.5 3.5t-4.5 4.5t-1.5 3v2q52 65 71 104q4 8 7.5 25t4.5 29l2 13q-1 2 -1 5.5t-1.5 11.5t-3.5 12q-1 2 -2.5 4.5t-3.5 4.5t-4 4.5t-3.5 4t-3 3.5t-2.5 2l-1 1q-41 -37 -68 -45q-58 -17 -111 -17q-10 0 -18 0.5t-14.5 1t-14 2t-11.5 2t-11 2.5
t-10 3t-11 3.5t-11 2.5q-8 3 -19 8.5t-21 12t-19 12t-14 9.5l-6 4q-1 -2 -4 -5t-8 -9.5t-7 -10.5q-5 -9 -8 -29q-2 -40 11 -67q5 -8 14.5 -22t20 -28t20 -26.5t15.5 -20.5l7 -8q0 -2 -1 -4t-9 -6t-21 -4q-6 0 -12 1t-10 2t-8 2.5t-6 3.5l-4 2l-3 3l-1 1q31 -35 81 -55
q22 -9 50 -11.5t45 0.5l18 2q6 -1 16.5 -2.5t40 0.5t54.5 11q56 20 77 54l-3 -3q-3 -3 -13.5 -6.5t-23.5 -3.5zM514 152q105 0 180 74.5t75 180.5q0 59 -25 111t-69 87.5t-99 49.5q-8 2 -15.5 6.5t-12.5 10.5t-3 13.5t13 13.5q-33 3 -58.5 -4t-38.5 -17t-27.5 -21.5
t-22.5 -15.5q-45 -20 -79.5 -54.5t-54 -81t-19.5 -98.5q0 -69 34 -128t93 -93t129 -34zM622 495q14 0 23.5 -10t9.5 -23.5t-9.5 -23.5t-23.5 -10t-23.5 10t-9.5 23q0 9 4.5 17t12 12.5t16.5 4.5zM448 336q5 14 15 24.5t23.5 16.5t28.5 6q12 0 22.5 -3.5t19 -9.5t15 -14.5
t10.5 -18.5q2 -4 -15 -35t-34 -61l-18 -29l-58 103q-9 18 -9 21zM409 495q6 0 12.5 -3t11 -7.5t7 -10.5t2.5 -13q0 -13 -10 -23t-23.5 -10t-23.5 10t-10 23.5t10 23.5t24 10zM866 324q-15 18 -29.5 27.5t-20.5 11.5t-18 3q-5 1 -8 0.5t-5 -1.5t-3 -2l-2 -2v-1
q-7 -48 -20 -82q-3 -9 -10 -20t-14.5 -19.5t-14 -16t-10.5 -12.5l-5 -4q2 -1 4 -3t7.5 -9.5t10 -16.5t8 -24.5t3.5 -33t-8.5 -38.5t-18 -36t-24.5 -32.5t-18 -20.5l-9 -9q46 2 79 28l12 13q7 6 12 12l10 14q5 6 8 11.5t5.5 9.5t4.5 7l1 2l4 -46q4 4 9.5 11t17 25t16.5 32
q3 9 5 22t2.5 25t1 23t-0.5 17v7q1 -1 2 -1.5t4 -4.5t5 -9q1 -4 2.5 -8.5t2 -9t1 -8t1.5 -6.5v-2q2 6 6 15.5t11 35t7 46.5q0 7 -1 14.5t-3 15.5l-4 14q-2 8 -5 15t-5.5 12.5t-5.5 8.5zM285 120q1 60 33 86l-2 2l-6 6q-5 5 -9.5 10t-10 12t-10.5 13.5t-9.5 14.5t-6.5 14
q-6 15 -11 35.5t-7 33.5l-2 13l-5 5q-5 3 -13 1q-12 -1 -18 -3t-20.5 -11.5t-29.5 -27.5q-3 -3 -5.5 -8.5t-5.5 -12.5t-5 -15l-4 -14q-2 -8 -3 -15.5t-1 -14.5q0 -21 6 -45.5t12 -37.5l6 -14q0 2 0.5 6t2.5 13t4 14.5t4.5 9.5t4.5 5l2 1q-3 -62 8 -94q5 -14 16 -31t19 -27
l8 -10l4 46q21 -43 53.5 -69t78.5 -28l-32 35q-45 59 -46 102z" />
    <glyph glyph-name="uniE608" unicode="&#xe608;" 
d="M577 445h-117h-1v-119q0 -1 1 -1h117l1 1v119h-1zM577 206h-117l-1 -1v-119h1h117h1v119v1h-1zM990 651h-294v51q0 1 -1 2t-2 1h-65q-3 0 -3 -3v-51h-225v51q0 3 -3 3h-65q-3 0 -3 -3v-51h-294q-2 0 -2 -2v-751q0 -1 0.5 -1.5t1.5 -0.5h955q1 0 1.5 0.5t0.5 1.5v751
q0 1 -0.5 1.5t-1.5 0.5zM921 -19q0 -1 -1 -1h-815h-1v1v597q0 1 1 1h224v-37q0 -3 3 -3h65q3 0 3 3v37h225v-37q0 -3 3 -3h65q1 0 2 1t1 2v37h224q1 0 1 -1v-597zM814 206h-117q-1 0 -1 -1v-119h1h117v119v1zM341 205v1h-1h-117q-1 0 -1 -1v-119h1h117h1v119zM341 445h-1
h-117h-1v-119q0 -1 1 -1h117q1 0 1 1v119zM814 445h-117h-1v-119q0 -1 1 -1h117v1v119z" />
    <glyph glyph-name="uniE609" unicode="&#xe609;" 
d="M925 592q-71 -65 -97 -184l2 -11q28 -65 19 -135q0 -7 -7 -9q-53 -13 -147 -64q-10 -5 -19 0q-12 6 -25.5 11t-27.5 9t-27.5 6t-28.5 4q-100 10 -181 -19q-12 -4 -28 -12q-3 -2 -6 -2t-7 1q-6 3 -17 9t-17.5 9.5t-16.5 8t-18 8.5q-21 9 -83 32q-4 2 -5.5 4t-2.5 6
q-7 67 20 134q3 7 2 12q-18 93 -70 155q-1 1 -25 28l15 3q10 2 18.5 3.5t16.5 2.5q66 10 114 0q22 -6 42 -16t38 -25q6 -5 13 -2q151 62 297 0q6 -3 10 1q67 57 171 46q5 -1 72 -12q1 0 4 -1q1 -1 2 -1zM560 333q0 -28 13.5 -52t37.5 -38t52 -14q42 0 72.5 30.5t30.5 73.5
t-30.5 73t-73.5 30q-42 0 -72 -30.5t-30 -72.5zM457 332q0 44 -30.5 74.5t-73.5 29.5t-72.5 -32t-29.5 -74q0 -27 14.5 -50.5t38.5 -37t52 -13.5q42 1 72 31.5t29 71.5zM239 462q29 27 81 75q-39 23 -114 23q11 -15 18 -32.5t10 -32t5 -33.5zM712 535q51 -33 84 -77
q7 66 33 102q-36 0 -64 -5t-53 -20zM663 385q15 0 27 -7t19 -19t7 -27q0 -11 -4.5 -20.5t-11.5 -16.5t-17 -11t-21 -4q-22 0 -37 16t-15 37q0 23 15.5 38t37.5 14zM355 385q22 0 37 -15t15 -37.5t-15.5 -37.5t-37.5 -15q-15 0 -27 7t-19 19t-7 27q1 11 5 21t11 17t16.5 10.5
t21.5 3.5zM962 155q-8 0 -22 -1t-25.5 -1.5t-21.5 -1.5q-83 -8 -162 -32q-9 -2 -17.5 -4.5t-24 -7t-17.5 -5.5q-2 0 -3 -0.5t-3 0.5q-1 0 -8 7l2 2l5 5q6 2 18.5 5t20 5t18 5t20 5.5t18.5 4.5q83 18 160 17q2 0 42 -2v-1zM62 152q39 4 41 4q75 2 137 -11q17 -4 129 -31
q3 0 3.5 -0.5t3.5 -1.5t2 -2.5t0 -4.5q-3 -8 -13 -5q-2 0 -6 1q-45 13 -67 20q-83 22 -142 26q-5 1 -87 3l-1 1v1zM937 34q-37 11 -39 12q-55 17 -113 23q-18 2 -38.5 3t-45.5 2.5t-38 2.5q-4 0 -7 0.5t-6 1.5q-5 2 -4.5 6t4.5 6q3 1 5.5 1.5t5.5 0.5q97 -4 152 -15
q16 -3 31.5 -7t31 -9.5t30 -11.5t29.5 -13l1 -1h1v-2zM97 35q5 2 13.5 6t15.5 7.5t14 5.5q65 26 139 32q80 6 94 6q3 1 6.5 0t6.5 -3q4 -1 4 -4t-3 -5q-7 -3 -15 -3q-74 1 -146 -11q-72 -13 -119 -31q-1 0 -2.5 -0.5t-3.5 -1t-3 -0.5zM151 140q8 -2 26 -5t32 -5.5t26 -4.5
q10 -2 28.5 -6t27.5 -6q13 -2 11 -14q-4 -1 -9 -1.5t-9.5 -1t-9.5 -1t-9.5 -1.5t-9.5 -1.5t-9 -1.5q-22 -4 -40 7q-11 7 -51 33q0 1 -5 6q0 1 0.5 1.5t0.5 1.5zM133 254q47 -5 91 -20q16 -6 33 -13.5t32.5 -15t31.5 -17.5q11 -6 93 -58q9 -6 4 -12q-4 -4 -7.5 -4.5t-7.5 3.5
q-39 27 -62 43q-38 25 -77.5 44.5t-79.5 33.5q-3 1 -51 16zM902 253q-4 -2 -13 -4.5t-16 -4.5t-14 -5q-55 -21 -78 -32q-26 -12 -52.5 -27t-49.5 -30.5t-48 -34.5q-8 -6 -14 2q-2 3 -1 6t4 5q44 32 88.5 56.5t90.5 43.5q24 9 48.5 15.5t50.5 10.5h3h1v-1zM887 138
q-26 -25 -60 -41q-20 -10 -37 -6q-5 1 -59 8q0 11 11 14q45 13 137 25h4h4zM518 132q-1 1 -3 2l-6 4q-11 9 -29.5 25.5t-26.5 22.5q-4 4 -5.5 6.5t0.5 7.5l2 2l4 2q1 1 3 1.5t4 0.5h38h39h38q2 0 4.5 -1t4.5 -2.5t4 -2.5q2 -2 1 -5t-2.5 -4.5t-4.5 -4t-6 -5.5t-6 -5l-6 -6
q-3 -2 -6 -5t-6 -5l-6 -6l-6 -4q-3 -3 -6.5 -6t-6.5 -5q0 -1 -10 -7zM919 233q-2 -2 -3.5 -4.5t-3 -4.5t-3.5 -4.5t-3.5 -4.5t-3.5 -4q-8 -10 -17 -18.5t-19.5 -15.5t-21.5 -13q-4 -2 -9 -3t-11.5 -1.5t-10 -1t-8 -1.5t-8.5 -1l-8 -2q-4 0 -8 -1t-8 -1.5t-8 -1.5t-8 -1.5
t-8 -1.5l-8 -2q-14 -1 -19 7l-7 9q8 6 18 11l20 12q10 5 19 9t20 9l19 10q15 8 32.5 11.5t41 5.5t34.5 4zM118 235q8 0 23 -1t26 -2.5t21 -4.5q21 -7 91 -40q3 -2 7 -3.5t7 -3.5t7 -4.5t7 -4t7 -4t7 -4.5q-1 -2 -3 -5q-2 -2 -3 -3.5t-2.5 -3.5t-2.5 -3q-3 -3 -8 -2
q-16 2 -36.5 5.5t-30.5 5t-36 6.5h-1q-5 1 -6 2q-24 12 -42 29t-31 39v2h-1zM607 87q-6 -28 -31.5 -45t-60.5 -16q-31 0 -56 17.5t-29 43.5h177zM822 55q-9 -5 -17.5 -9t-17.5 -7t-18 -5.5t-18.5 -3.5t-18.5 -2q-5 -1 -12.5 -0.5t-12.5 0.5t-12 0.5t-12 0.5q-6 0 -10 -1
q-154 -68 -307 0q-5 2 -9 1q-46 -9 -112 13q-4 1 -7 2l-8 4q-3 1 -6.5 3t-6.5 4q1 0 4 1l9 1q61 7 90 9q5 1 9 -2q44 -35 117 -47q50 -9 101.5 -5.5t99.5 19.5q11 4 21 8.5t20 10.5t19 13q5 4 12 4q20 -2 86 -10q1 0 17 -2z" />
    <glyph glyph-name="uniE60A" unicode="&#xe60a;" 
d="M930 317q6 -69 -4 -122q-21 -106 -99 -165q-62 -46 -140 -53q-7 0 -14 -0.5t-15 -1t-14.5 -1t-15.5 -0.5h-14q-6 0 -15 -0.5t-15 -0.5h-14h-15h-219q-5 0 -7.5 -1t-3.5 -3.5t-1 -7.5v-97v-13q-105 87 -262 217q43 35 130 107t131 109q0 -2 0.5 -4.5t0.5 -4.5v-3v-99
q0 -7 2 -9.5t9 -2.5q25 1 57 1h59h57h59q30 0 58 1q118 2 204 47q57 30 85 77q1 1 16 30zM699 319v62v15v18v16q0 9 -9 9q-292 -2 -298 -2q-27 -1 -51.5 -3.5t-49.5 -8t-49 -14t-47 -20.5q-55 -28 -83 -72q-3 -4 -6 -9.5t-6 -12.5l-6 -11q-2 22 -2 23q-5 102 34 177
q55 106 184 133q38 8 101 8h127h150q4 0 6 0.5t3 2t1.5 3.5t0.5 5q0 15 -0.5 30.5t0 38t0.5 30.5v13q31 -26 122 -101t141 -116q-34 -28 -83.5 -69t-94.5 -78t-82 -68q-1 0 -2 1h-1z" />
    <glyph glyph-name="uniE60B" unicode="&#xe60b;" horiz-adv-x="1025" 
d="M512 700q-109 0 -201 -53.5t-145.5 -145.5t-53.5 -201q0 -81 31.5 -155.5t85 -128t128 -85t155.5 -31.5q109 0 201 53.5t145.5 145.5t53.5 201q0 36 -6.5 71.5t-18.5 68t-29.5 62.5t-39.5 56t-48 48t-56 39.5t-62.5 29.5t-68 18.5t-71.5 6.5zM668 201l-57 -57l-99 99
l-99 -99l-57 57l99 99l-99 99l57 57l99 -99l99 99l57 -57l-99 -99z" />
    <glyph glyph-name="uniE60C" unicode="&#xe60c;" 
d="M512 -100q54 0 106 14.5t95.5 40t80.5 62.5t63 81t40.5 96t14.5 106q0 109 -53.5 201t-146 145.5t-201 53.5t-200.5 -53.5t-145.5 -145.5t-53.5 -201q0 -166 117 -283t283 -117zM332 340h360v-80h-360v80z" />
    <glyph glyph-name="uniE60D" unicode="&#xe60d;" 
d="M952 64h-333h-17q0 -7 1 -21t2 -24.5t1 -20.5q2 -41 39 -60q3 -2 7.5 -4.5t6.5 -3.5t8 -5t7 -4l7 -7q4 -6 2 -10t-9 -4q-6 -1 -13 -1h-17h-13h-19q-172 1 -258 1q-12 0 -14 5q-1 5 1.5 8.5t7.5 6.5q3 2 9 5.5t10 5.5t9 5.5t9 5.5q28 18 31 51q1 9 5 71h-12h-114h-113
h-114q-19 0 -27.5 8.5t-8.5 27.5v568q0 34 34 34h885q29 0 39 -22v-594q-10 -22 -39 -22zM945 637h-866v-503h866v503zM138 281v7v7v7v6v7q0 6 3 9.5t9 3.5h38q13 0 13 -13v-35v-34q0 -13 -13 -12h-12q-8 0 -13 -0.5t-12 0.5q-13 0 -13 13v34zM319 297v15v18v16q1 7 3.5 10
t10.5 3h36q13 0 13 -13q1 -36 0 -100q0 -13 -12 -12q-5 0 -19 -0.5t-19 0.5q-12 0 -13 13v50zM291 312v-12v-14v-12v-14v-12q0 -4 -0.5 -7t-2 -4.5t-4 -2t-6.5 -0.5q-9 -1 -18 -1t-18 1q-13 0 -13 12v132q0 12 13 13h18h19q4 -1 7 -2t4 -4t1 -8v-65zM851 483
q-16 -12 -37.5 -28t-42.5 -31.5t-38 -28.5v152q27 2 65 -18t53 -46zM410 327v79q0 10 3.5 13t12.5 3h17h16q14 0 14 -13v-163q0 -12 -13 -12q-2 0 -4 -0.5t-4 -0.5h-4h-4h-4h-5h-4q-2 0 -4 0.5t-4 0.5q-13 0 -13 13v80zM350 426q13 15 28 32t32 36.5t29 32.5h-36
q-4 0 -6.5 0.5t-4.5 3t-3 6.5q0 3 1.5 5.5t5 4t8.5 1.5h55q8 0 11 -3t3 -11v-28v-29q0 -6 -2.5 -9.5t-7.5 -3.5q-11 0 -11 13v33q-10 -11 -10 -12q-7 -8 -35.5 -40t-43.5 -50q-7 -7 -11 -7t-11 6q-10 7 -80 64q-1 -1 -3 -2l-5 -5q-10 -10 -22.5 -21.5t-22.5 -21t-23 -22
t-23 -21.5q-1 0 -2 -1q-3 -4 -5 -5q-9 -7 -14 2q-2 3 0 13q0 1 6 6q66 62 102 96q7 6 10.5 6.5t10.5 -5.5q8 -7 18 -14.5t18 -14t18 -14.5t18 -14l5 -5zM819 253q-11 17 -25 39t-28.5 44t-25.5 39q17 12 39.5 29t44 33t38.5 29q16 -23 21 -52t0 -58.5t-21.5 -57t-42.5 -45.5
zM712 535v-28v-34v-27v-56q0 -8 4 -14q13 -20 70 -109q2 -2 3 -4t3 -5t3 -4q-30 -21 -77 -20t-85 28q-40 29 -55.5 75.5t-0.5 92.5q14 45 52 74.5t83 30.5z" />
    <glyph glyph-name="uniE60E" unicode="&#xe60e;" 
d="M394 502q51 -48 55 -52q96 -90 119 -111q4 -4 4 -10v-296v-4v-2h-8q-285 -1 -355 -1q-8 0 -8 9v288q0 8 5 13q38 33 184 163zM448 236v-169h85v169h-85zM383 178v5v5v6v4v5q0 2 -0.5 3.5t-2 2t-3.5 0.5h-52q-5 0 -5 -6v-51q0 -6 6 -6q28 1 51 0q6 0 6 7v25zM320 71h14h16
q5 0 13.5 0.5t15.5 0.5q1 0 2 2t1 3q1 9 1 26v25q0 6 -7 6h-43h-13v-63zM308 147v62h-61v-62h61zM308 72v62h-61v-62h61zM398 411v-13v-14v-12v-14v-13v-13q0 -1 2 -2.5t4 -1.5h16h15q7 -1 7 7v35v35l-1 6h-43zM344 328h36q7 -1 7 7v22v27v22v3l-1 2h-42v-83zM547 59h-113
v-15h113v15zM594 246h266v-219h-266v219zM831 50v9v107q0 8 -8 8h-191q-8 1 -8 -8v-108q0 -4 0.5 -5.5t2 -2t4.5 -0.5h191h9zM610 352h-6h-6h-4h-6h-6q-2 0 -6 4q-39 37 -177 167l-3 3l-2 1q-1 0 -2 -1q-3 -2 -4 -4q-10 -8 -45 -39t-50.5 -45.5t-42.5 -38t-49 -43.5
q-2 -2 -5 -3t-6 -1h-32q104 98 235 221q30 -30 103.5 -105.5t113.5 -115.5zM778 328q32 0 38 -1q3 0 5 -2q11 -18 36 -60l1 -3q-27 0 -29 -1q-9 -1 -15 2.5t-10 12.5q-1 4 -26 52zM801 262h-10h-11h-10h-10q-2 0 -3 2q-8 15 -34 64h11h11h9q6 0 11 -1q2 0 4 -2q3 -7 8 -16.5
t7.5 -14t9.5 -18t7 -14.5zM697 262h-9h-10h-8h-9q-2 0 -3 0.5t-2 1.5l-8 17l-8 14q-2 5 -8.5 17t-8.5 16h8h8h7q4 0 7.5 -0.5t7.5 -0.5q1 0 1 -1l2 -1l6 -12q3 -6 7 -13.5t6.5 -11.5t7 -13.5t6.5 -12.5zM674 328h9h9h9q5 0 9 -1q2 0 4 -2q10 -20 32 -61v-1v-1h-5h-5h-6h-4
h-6h-4h-6q-2 0 -4 3q-10 19 -32 61v2zM593 262v66q14 0 16 -1l5 -3q7 -13 32 -62h-53zM518 216v-24h-56v24h56zM768 139v17h42v-17h-42zM747 157v-19h-41l-1 2q-2 8 -0.5 11.5t4 4.5t11.5 1h27zM643 156h42v-18h-9h-10h-10h-10q-3 0 -3 4v14z" />
    <glyph glyph-name="uniE60F" unicode="&#xe60f;" 
d="M32 610q5 15 5 16q6 19 19 32.5t31 21t39 7.5h268h31h31q16 0 32 -1q27 0 47.5 -12t35.5 -35q2 -4 4.5 -7.5t5.5 -7.5l5 -8q2 -3 6 -8.5t5.5 -7.5t5.5 -8t5 -7q4 -6 10 -6h370h2l2 1v-665q-13 -1 -14 -1h-801q-6 0 -145 1v695zM952 540h-13h-338q-8 0 -12 5
q-6 9 -12.5 17.5t-12.5 17.5t-12 17.5t-12 17.5q-8 12 -16 19t-18 9q-10 3 -19 4t-18 1h-171q-128 0 -170 1q-25 0 -41 -16t-16 -41v-628v-11h881v587zM749 437h132q12 0 15 -16v-3q2 -13 -2 -22t-13 -9h-99h-14h-149h-1q-7 0 -9 4q-8 12 -7 23q0 10 9 21q1 1 10 1
q33 1 128 1zM749 273h-127h-3q-5 0 -7 1q-11 4 -11 25q1 22 12 23h30h81h74h81h2q2 1 3.5 1t2.5 -2q9 -12 9 -20q0 -6 -2 -12.5t-5 -12.5q-1 -3 -10 -3h-130zM749 159h-129h-2h-4q-14 2 -13 26q1 23 14 23h54h1h1h1h1h1h1h1h1h1h1h1h1h1h1h1h1h1h1h1h1h1h1h1h1h1h1h1h1h1h1
h1h1h1h1h1h1h1h1h1h1h1h1h1h1h1h2h1h1h1h1h1h1h1h1h1h1h1h1h1h1h1h1h1h1h1h1h1h1h1h1h1h1h1h1h1h1h1h1h1h1h1h1h1h1h1h1h1h1h1h1h1h1h1h1h1h1h1h1h1h1h1h1h1h1h1h1h1h1h1h1h1h1h1h1h1h1h1h1h1h1h1h1h1h1h1h1h1h1h1h1h1h1h1h1h1h1h1h1h1h1h1h1h1h1h1h1h1h1h1h1h1h1h1h1h1h1h1
h1h1h1h1h1h1h1h1h1h1h1h1h1h1h1h1h1h1h1h1h1h1h1h1h1h1h1h1h1h1h1h1h1h1h1h1h1h1h1h1h1h1h1h1h1h1h1h1h1h1h1h1h3q4 1 5 -1q9 -13 9 -20q0 -4 -1 -9t-2.5 -9t-3.5 -7t-11 -3h-129zM750 94h131q16 0 16 -25q0 -4 -0.5 -7.5t-1.5 -6t-2.5 -5t-3 -3.5t-4 -2t-4.5 -1h-88h-88
h-88q-16 0 -16 25t16 25h41h50h42zM386 230h2h4q18 -2 26 3t12 22v1q0 2 0.5 3t1 3t0.5 3q1 8 3.5 14t7.5 11q5 4 3 11q-5 16 -6.5 31.5t0.5 31.5q0 7 -1 16q-8 43 -39 57q-40 18 -78 10q-21 -4 -35 -12t-21 -24q-10 -23 -14 -46t0 -47t19 -32q10 -6 10 -22q-1 -13 -6 -23.5
t-16 -17.5q-33 -23 -34 -23q-5 -4 -10 -8.5t-9.5 -9t-8.5 -9.5t-7 -10.5t-5.5 -11t-4 -11.5t-3 -12.5t-1.5 -13.5v-8q0 -4 1.5 -7t4.5 -5.5t9 -4.5q14 -5 41.5 -16t41.5 -16q68 -20 124 -13q52 8 66 46q11 31 -2.5 62.5t-43.5 47.5q-11 -31 -12 -32q-8 -17 -22.5 -25.5
t-31 -7t-32.5 12.5q-14 8 -23.5 20.5t-16.5 27.5l-2 7l5 -5l5 -5q2 -2 4.5 -5t4.5 -5q21 -22 43 -29q27 -9 44 8t18 49q-14 4 -16.5 6.5t0.5 12.5zM527 -11h-396v523h396v-523z" />
    <glyph glyph-name="uniE610" unicode="&#xe610;" 
d="M223 622q0 45 47 45h482q22 0 34 -11.5t12 -32.5v-645q0 -44 -47 -44h-482q-46 0 -46 44v322v322zM772 249q0 221 -1 269q0 10 -1 11t-11 1h-98h-104h-96h-104h-98q-4 0 -6 -1t-2.5 -3t-0.5 -5v-355v-188q0 -6 1.5 -10t5.5 -5.5t11 -2.5h6h364q99 0 116 0.5t17 16.5
q1 0 1 5v267zM510 556h60h69h59h65q5 0 7 1.5t2 6.5q-1 9 -1 18v22v18q0 18 -18 18h-485q-18 0 -18 -19v-17v-21v-18q-1 -9 9 -9h251zM590 -2q-30 -7 -34 -8q-9 -2 -15 6l-7 2l-10 -2q-5 -1 -10 -2.5t-10 -2.5q-7 -2 -12 0t-8 8q-3 -1 -8.5 -2t-9 -2t-8.5 -2t-9 -2
q-45 -7 -86 13.5t-64 59.5q-16 28 -19.5 58.5t4.5 58t24.5 51t42.5 39t58 20.5q35 5 68 -7q7 -3 10 2q5 7 17 5q3 -1 35 -8q6 11 22 7q19 -5 27 -6q5 -1 7 1q6 8 17 6q32 -5 58 -20t44 -41q24 -33 28 -72.5t-9.5 -73t-43 -59t-69.5 -33.5q-10 -2 -12 -2q-1 1 -18 8zM428 16
q52 0 88 36.5t36 88.5q0 33 -16.5 62t-45 46t-62.5 17q-51 0 -87 -37t-36 -89t36 -88t87 -36zM525 257q53 -49 53 -117q0 -67 -53 -116q33 10 58.5 43.5t23.5 80.5q-2 41 -27.5 71t-54.5 38zM583 256q51 -58 51 -115.5t-51 -115.5q34 10 57.5 46t21.5 74q-2 39 -26.5 72.5
t-52.5 38.5zM636 256q52 -48 52 -116q0 -67 -52 -115q30 9 55 40.5t26 74.5q0 42 -24.5 74.5t-56.5 41.5zM565 388q0 -21 -13.5 -37t-33.5 -18q-10 -1 -20.5 1.5t-18 8t-13.5 13.5t-8 19q-3 11 -1.5 21.5t7.5 19.5q1 3 3 6t3.5 5t3 5t3.5 5q2 5 6.5 12t8 13.5t6.5 11.5
q6 7 12 9q7 0 12 -8q5 -7 13 -20.5t13 -20.5q17 -25 17 -46zM511 440q-18 -26 -20 -29q-5 -7 -7 -14q-3 -12 2 -22.5t16 -14t21 1.5t14 16q4 14 -3 26q-1 3 -23 36zM661 333q-27 -1 -43.5 21.5t-7.5 48.5q1 6 16 32q5 10 7.5 14t7 12t8.5 14q5 7 12 8q3 0 6.5 -2.5t5.5 -5.5
q1 -2 2.5 -4t2.5 -4t2.5 -4t2.5 -4t2.5 -4t2.5 -4t2.5 -4.5t2.5 -4.5t2.5 -4t2.5 -4q17 -26 17 -46q1 -8 -1 -15t-5.5 -13t-8.5 -11t-11 -9t-13 -5.5t-15 -1.5zM662 439l-3 -3q-16 -22 -18 -26q-2 -3 -3.5 -6.5t-2.5 -7.5q-3 -9 0 -18t10 -14q16 -11 32 0q7 5 10 13.5
t1 18.5q-2 7 -6 14t-10.5 16t-9.5 13zM360 333q-29 0 -45 23.5t-5 52.5q1 3 14 26q19 32 24 40q2 3 5.5 5t6.5 3q6 0 12 -8q4 -7 12.5 -21t12.5 -20q3 -5 5.5 -9t5 -9t4 -10t1.5 -10q4 -25 -12 -44.5t-41 -18.5zM360 440q-2 -3 -6.5 -9.5t-8 -11t-5.5 -9.5q-4 -6 -6.5 -15
t0 -17t10.5 -14q15 -11 31 -0.5t12 30.5q-1 6 -4 12.5t-6.5 11t-8.5 11t-8 11.5zM524 611h8h8h8h8h8q14 0 14 -13q0 -3 -1 -5.5t-2.5 -4t-4 -2.5t-6.5 -1q-42 -1 -80 0q-7 0 -10.5 4t-3.5 10q1 12 14 12h40zM633 598q0 -5 -4 -9t-9 -4.5t-9 4t-4 9.5t4 9t10 4q12 -1 12 -13z
M441 597q0 -5 -4 -9t-9 -3q-4 0 -7 2t-4.5 5t-1.5 7q1 5 5 8.5t10 3.5q12 -1 11 -14zM524 141q0 -6 -4 -10t-9 -4q-4 0 -7 2t-5 5t-2 7q0 15 14 14q5 0 9 -4t4 -10zM439 72q5 0 9 -4.5t4 -9.5t-4.5 -9t-9.5 -4q-12 1 -12 14q0 3 1.5 6t4.5 5t7 2zM362 120q0 -5 -4 -9
t-9.5 -3.5t-9.5 4t-3 9.5q0 5 3.5 9t9 4t9.5 -4t4 -10zM362 160q0 -6 -4.5 -9.5t-10 -3.5t-9 4t-2.5 10q0 5 3.5 8.5t9 3.5t9.5 -4t4 -9zM488 103q1 5 4.5 9t9 4t9.5 -4.5t3 -9.5q0 -4 -1.5 -7t-5 -4.5t-6.5 -1.5q-13 1 -13 14zM366 182q-5 0 -9 4t-3 10q0 4 1.5 6.5t4.5 4
t7 1.5q5 0 9 -4t4 -9t-4.5 -9t-9.5 -4zM399.5 231q5.5 0 9 -4t3.5 -10q-1 -5 -5 -9t-9 -3.5t-9 4.5t-4 9q0 6 4.5 9.5t10 3.5zM450 223q0 -13 -13 -13q-5 0 -9 4t-4 9q0 4 2 7t5.5 4.5t6.5 1.5q6 0 9.5 -4t2.5 -9zM514 180q0 -6 -4 -9.5t-9.5 -3.5t-9 4t-3.5 9q0 13 13 13
t13 -13zM413 63q0 -5 -4 -9t-9.5 -4t-9 4t-3.5 9.5t3.5 9t8.5 4.5q3 0 5.5 -1.5t4 -3t3 -4t1.5 -5.5zM474.5 196.5q-5.5 -0.5 -9 3t-4 9.5t3.5 10t9 4q3 0 5.5 -1.5t4.5 -3t3 -4t1 -5.5q0 -5 -4 -8.5t-9.5 -4zM367 73q-5 0 -9 3.5t-4 9.5q0 3 2 6t5 5t6 2q6 0 9.5 -4
t3.5 -10q0 -12 -13 -12zM488 72q0 -5 -3.5 -9t-9.5 -4q-5 0 -9 4t-4 9.5t4 9.5t9.5 4t9 -4t3.5 -10z" />
    <glyph glyph-name="uniE611" unicode="&#xe611;" 
d="M526 -89v23v26v21v194q0 6 2 8t7 3q14 1 26 6t23 12q13 10 17.5 22t-0.5 23.5t-18 21.5q-30 21 -77 20q-34 -1 -59 -15q-13 -8 -20 -18.5t-7 -20.5t7 -20t20 -17q8 -4 43 -14q0 -1 1 -1q6 -2 6 -7v-263v-3l-1 -1q-21 1 -41.5 5t-39.5 12q-128 51 -156 175q-25 108 50 199
q6 7 6 17v54v54q-1 71 38 127l2 2l1 2q-38 33 -62 41q-18 6 -24 -12q-6 -19 -7 -36q-4 -51 4 -153q1 -10 2 -23t2.5 -26t2.5 -22q3 -32 -18 -56t-53 -27q-19 -2 -37 7t-30 25.5t-13 35.5q-8 162 56 298q18 38 47 60q47 35 109 9q38 -17 83 -58q0 -1 4 -4q6 1 16 5t18 6.5
t15 3.5q62 14 118 -12q11 -5 20 3q35 34 71 52q46 22 84.5 11.5t66.5 -53.5q18 -27 29.5 -58.5t20.5 -69.5q11 -42 16 -84t5 -84q-1 -20 -4 -34q-3 -15 -11.5 -27t-20 -20t-26 -11t-29.5 0q-28 5 -46 30t-15 55q2 30 4.5 58.5t4 58.5t3.5 59q1 15 -0.5 31.5t-4.5 35.5
q-3 21 -12.5 26t-27.5 -6q-4 -2 -50 -34q1 -1 2 -2.5t1.5 -2.5t1.5 -2q18 -27 27.5 -56.5t9.5 -62.5q0 -105 -1 -114q0 -10 7 -18q65 -77 54 -173q-12 -108 -107 -172q-57 -39 -130 -45h-6zM627 419q0 14 -6 25.5t-17.5 18.5t-24.5 7q-20 1 -34.5 -14t-15 -35.5t14 -35.5
t34.5 -16q8 0 15.5 2.5t13.5 7t10.5 11t7 14t2.5 15.5zM445 369q20 0 34.5 15t14.5 36t-15 36t-35 14q-8 0 -15 -2.5t-13 -7t-10.5 -11t-7 -14t-2.5 -15.5q0 -11 4 -20t10.5 -16t15.5 -11t19 -4zM637 140q-7 0 -11.5 -5t-4.5 -12t4.5 -11.5t11 -4.5t11.5 5t5 12q0 6 -5 11
t-11 5zM408 123q0 7 -4.5 12t-11.5 5q-4 0 -7.5 -2.5t-6 -6.5t-2.5 -8q0 -7 5 -11.5t11.5 -4.5t11 5t4.5 11zM360 173q0 7 -4.5 11.5t-11.5 4.5t-11.5 -4.5t-4 -11.5t5 -11.5t11 -4.5t11 4.5t4.5 11.5zM685 157q2 0 4 0.5t3.5 1.5t3 2.5t2.5 3t1.5 4t0.5 4.5q0 3 -1 6
t-3 5.5t-5 3.5t-6 1q-7 0 -11.5 -4.5t-4.5 -11.5t4.5 -11.5t11.5 -4.5zM357 70q0 7 -4.5 12t-10.5 5q-7 0 -12 -4.5t-5 -11.5q0 -4 2 -8t6 -6t8 -2q7 0 11.5 4.5t4.5 10.5zM687 87q-6 0 -10.5 -5t-4.5 -11.5t5 -11t11.5 -4.5t11 4.5t4 11.5t-5 11.5t-11.5 4.5z" />
    <glyph glyph-name="uniE612" unicode="&#xe612;" 
d="M512 700q-166 0 -283 -117t-117 -283t117 -283t283 -117t283 117t117 283t-117 283t-283 117zM694 269l-152 -152q-9 -9 -23 -9t-23 9l-163 163q-7 7 -8 12t3.5 8t13.5 3l98 -3v183q0 10 10 10h126q10 0 10 -10v-183v-2v-2l98 -3q9 0 13.5 -3.5t3.5 -9t-7 -11.5z" />
    <glyph glyph-name="uniE613" unicode="&#xe613;" 
d="M764 226v-54v-188q0 -5 -0.5 -8.5t-2 -6t-3.5 -4.5t-4.5 -3.5t-6 -2t-7.5 -0.5h-463q-13 0 -18.5 6t-5.5 19v278v206q0 14 5.5 20t19.5 6h462q13 0 18.5 -6t5.5 -19v-243v0zM343 228q1 -69 49.5 -117.5t116.5 -48.5q34 0 64.5 13.5t52.5 35.5t35 53t13 65
q0 69 -48.5 117.5t-116.5 48.5q-69 0 -117.5 -49t-48.5 -118zM253 531v29v37v29q1 19 22 20h85h120h140h119q14 0 19.5 -6t5.5 -19v-90h-511zM405 565q10 -1 16.5 6t6.5 16.5t-6.5 16.5t-16.5 7q-9 0 -16 -6.5t-7 -16.5t6.5 -16.5t16.5 -6.5zM328 565q5 -1 9.5 1t7.5 5t5 7
t2 9q0 10 -6.5 17t-16 7t-16.5 -6.5t-7 -16.5q-1 -9 6 -16t16 -7zM555 191q-1 18 12 37q10 13 14 21q3 6 4 12.5t-0.5 13t-6.5 12.5q-1 2 -5 8l-1 2q-5 6 1 11q7 6 12 -1q9 -11 13 -18.5t5.5 -20t-5.5 -24.5q-2 -5 -5.5 -11t-8.5 -12q-24 -34 5 -63q3 -3 3.5 -6t-2.5 -6
q-6 -7 -13 -1q-22 19 -22 46zM534 264v-4q0 -1 -0.5 -3t-1 -3.5t-1 -3.5t-1.5 -3.5t-2 -3.5l-2 -4l-2 -4l-12 -18q-20 -30 5 -57l2 -2q7 -6 2 -12q-1 -2 -3 -2.5t-3.5 -0.5t-3.5 0.5t-3 1.5q-20 18 -22 42q-1 11 2 20.5t9 19.5q10 14 14 21q11 20 -2 39q-4 5 -6 9
q-2 2 -2.5 4t0 4t3.5 4q2 2 5.5 2t5.5 -2q19 -24 19 -44zM416 191q0 18 13 36q9 15 14 23q9 18 -3 36q-4 7 -7 10q-4 7 1 12q7 6 12 0q14 -17 17.5 -28.5t-2.5 -31.5q-2 -5 -4.5 -9.5t-5 -8.5t-6.5 -9q-24 -34 5 -63q6 -6 2 -12q-6 -7 -14 0q-3 2 -5 4l-4 6q-2 2 -3.5 4.5
t-3 5.5t-2.5 6l-2 6q-1 3 -1.5 6.5t-0.5 6.5z" />
    <glyph glyph-name="uniE614" unicode="&#xe614;" 
d="M523 691h355q48 0 65.5 -18t17.5 -67q1 -239 0 -417q-1 -65 -23.5 -88t-85.5 -23h-653q-75 0 -105.5 30.5t-30.5 104.5q-1 173 0 382q0 35 8 55t27.5 29.5t53.5 10.5h371v1zM908 578q-60 -45 -62 -47q-23 -18 -71 -56t-76.5 -61t-69 -55.5t-73.5 -60.5q-24 -20 -43.5 -20
t-44.5 20q-52 43 -298 239q-2 2 -54 40v-125v-148v-116q0 -60 66 -60h338h343q23 0 34 9.5t11 32.5v408v0zM893 636h-762q281 -224 364 -288q4 -3 11.5 -3.5t15 1.5t11.5 5q79 61 360 285v0z" />
    <glyph glyph-name="uniE615" unicode="&#xe615;" 
d="M862 459q24 -18 26 -20q4 -3 9 -7t9 -7.5t9 -7.5t10 -7q7 -6 12.5 -12t9 -13.5t5 -15t1.5 -16.5q1 -271 0 -392q0 -21 -11 -38t-30 -27.5t-42 -10.5h-336h-337q-34 0 -58 22.5t-24 52.5q-1 63 -1 132v130q0 61 1 132q0 34 30 58q10 8 30.5 24t22.5 18t6 4l2 2h4v-27
q1 -8 -2.5 -13t-10.5 -10q-5 -4 -15 -11.5t-12 -9.5q-21 -16 -21 -42v-94v-95v-94v-95q0 -22 12 -34q15 -17 41 -17h212q337 1 450 1q12 0 22 3t16.5 9t10.5 15t4 20v192v192q0 22 -18 37q-31 25 -33 26q-6 6 -7 16q-1 2 -1 29h2zM599 433v-35v-1l2 -11q5 -8 10 -8q9 0 13 6
q2 3 3 7t2 9q1 13 1.5 23t-1 22t-4.5 23q-5 16 -17 26.5t-30 15.5q-20 5 -40.5 5t-40.5 -5q-34 -10 -49 -37q-13 -27 -13.5 -55.5t10.5 -55.5q5 -11 13 -19.5t18.5 -13.5t23.5 -7q15 -2 58 -2q22 0 23 -3q1 -2 2 -19q0 -7 -3 -10t-11 -3h-25h-24q-14 0 -25 2
q-44 6 -67.5 27.5t-30.5 61.5q-5 22 -4 46.5t8 45.5q24 67 107 79q22 3 42.5 1.5t41.5 -6.5t36.5 -15.5t25.5 -25t15 -33.5q6 -24 6 -44t-7 -44q-11 -27 -38.5 -34.5t-52.5 9.5q-1 1 -3 1h-5q-2 0 -4 -1q-25 -13 -46 -11q-17 2 -28 9.5t-16 20.5q-14 37 -1 77q5 19 21 28.5
t36 5.5q17 -3 56 -2q4 0 7 -1t4 -3.5t1 -6.5v-39zM557 414v8v11v8q-1 5 -3 7q-6 5 -19 3t-16 -8q-3 -5 -4.5 -11t-1.5 -11.5t0.5 -11.5t2 -11.5t4.5 -10.5q5 -11 26 -6q13 3 11 15v6v6v6zM255 319q-23 18 -26 20q-5 5 -5 12q-1 125 0 195q0 20 17.5 38t42.5 25q12 3 25 3
h459q21 0 38.5 -9t27.5 -25t10 -35v-89v-92q1 -10 -8 -16q-2 -1 -25 -19q-1 11 -1 12v189v2v6q-1 45 -50 45h-296h-142h-8q-4 0 -8.5 -0.5t-8.5 -1.5q-39 -8 -39 -45v-204v-10h-2zM179 -32q11 14 12 15q14 11 87 69q156 124 165 130q40 32 74 58q13 10 27 -1
q102 -81 145 -115q54 -43 95 -76t80 -65q7 -5 9 -12q4 -10 -8 -16q-11 -6 -21 2q-7 6 -15 12t-15 12t-15 12q-137 108 -214 170q-1 1 -7 5.5t-8 6.5t-7 6t-8 6.5t-7 6t-8 6.5q-10 9 -21 0q-32 -26 -306 -241q-12 -10 -21 -5q-2 1 -3.5 3t-2.5 3l-4 4q-2 2 -3 4zM643 175
q2 2 5 4l6 4l4 4l6 4l4 4l6 4q2 2 5 4.5t5 4.5q82 65 162 128l5 5q14 7 23 -2q12 -11 0 -22q-9 -8 -30 -25q-7 -6 -70.5 -57t-96.5 -77q-10 -8 -17 0q-2 1 -17 17zM416 173l-1 -2l-2 -2q-20 -16 -22 -16t-21 15q-48 37 -173 135q-4 3 -7 6l-6 6q-13 12 -2 23t25 0
q6 -4 14 -10.5t11.5 -9t15 -12t12.5 -9.5q9 -7 19 -15l17 -14q8 -6 20 -15.5t18 -14t19.5 -15.5t17.5 -14t19.5 -15t18.5 -15zM419 630q63 51 72 58l2 2q17 14 26 20q15 12 28 1q21 -17 99 -79l4 -5h-10h-10h-10h-10h-10q-2 1 -7 4l-1 1q-29 22 -46 37q-9 7 -12 7t-11 -7
q-2 -1 -8 -6t-8 -6.5t-7.5 -6t-8.5 -6.5t-7 -5.5t-8 -6.5q-6 -4 -16 -5h-40q-1 2 -1 3z" />
    <glyph glyph-name="uniE616" unicode="&#xe616;" 
d="M223 178q-39 42 -50 91.5t4 92t47 74.5q33 33 75.5 47.5t93 3t92.5 -52.5q42 23 55 30q-40 43 -50 94t6.5 94.5t53.5 76.5q22 19 47.5 31t51.5 15.5t52 -1t50.5 -17.5t46.5 -34q54 -53 57 -123.5t-54 -135.5q1 -1 2.5 -2t3 -1.5t3.5 -1.5q136 -69 177 -211q10 -35 -1 -67
t-39.5 -51.5t-64.5 -19.5h-281h-18q1 -2 3 -4.5t4 -3.5l2 -3q28 -29 47 -63t30 -72q15 -54 -17 -97t-88 -43h-424q-53 0 -85.5 42.5t-18.5 93.5q40 143 178 213zM352 -117h24h26h24h26h23q10 0 29 0.5t34 0.5t29 -1q23 0 37.5 20t8.5 41q-42 146 -183 190q-1 1 -4 1h-4
q-2 0 -4.5 -0.5t-4.5 -1.5q-60 -21 -120 0q-9 3 -18 1q-136 -43 -181 -185q-8 -25 8 -46t42 -20h208zM483 179q15 -11 35 -10h53h314q15 0 27.5 8t17.5 21.5t2 26.5q-40 150 -185 195q-3 1 -6.5 1t-6.5 -1q-63 -24 -126 -1q-7 3 -14 1q-10 -5 -21 -10t-25 -11.5t-21 -9.5
q-8 -4 -4 -13q25 -58 7 -117q-12 -44 -47 -80zM671 467q36 0 64.5 16t44.5 44.5t16 64.5q0 55 -35.5 90.5t-90 35.5t-89.5 -35.5t-35 -90.5t35 -90t90 -35zM353 432q-55 0 -90 -35t-35 -90q-1 -54 34 -89.5t90 -35.5q55 -1 90.5 34t35.5 90t-35 90.5t-90 35.5z" />
    <glyph glyph-name="uniE617" unicode="&#xe617;" 
d="M880 -24h-29q1 8 3 22t3.5 23.5t3.5 22t4 23.5q5 33 5 35q0 5 -3 9q-4 6 -13.5 18t-14.5 18l-2 4q-1 2 -1.5 4.5t-0.5 4.5q0 14 -1 83v9h-10v-321h-21q-1 0 -2.5 2.5t-1.5 3.5q-2 14 -3.5 28t-4 33.5t-3.5 27.5q-2 18 -4.5 40t-4.5 38.5t-4.5 40.5t-4.5 39h-8
q-89 3 -106 3l-6 2l-6 2q-19 10 -95 51q0 -1 -1 -2q-1 -3 -2 -4q-5 -11 -13.5 -29.5t-14 -31t-13 -28.5t-13.5 -30q-3 -7 3 -12q40 -37 166 -156l14 -13h-13q-7 0 -12 0.5t-11 2.5t-11 6q-56 47 -170 139q-4 4 -6.5 6t-6.5 5t-7 5.5t-7 5.5t-7 6q-4 3 -4.5 5.5t1.5 6.5
q1 3 4.5 9t5 10t3.5 9t2 9t-1 8t-3 7.5t-3.5 7t-3.5 7.5l-4 8q-44 104 -63 149q-4 8 -1 16q24 53 78.5 56.5t85.5 -45.5q1 -2 3 -5l1 -2q0 -1 1 -1q7 2 14.5 4.5t14 4.5t13.5 4t14 4.5t14 4.5t14 4.5t14 4.5q35 11 44 15q2 1 4.5 3t3.5 4q30 66 38 89q1 2 7 39q-9 -2 -10 -2
l-21 -6q-18 -5 -27.5 -7.5t-24.5 -6.5t-28 -8q-8 -2 -12 6q-6 15 -18 37q-2 4 -1.5 6t3.5 5q8 7 17.5 15t18.5 15l16 16q9 7 18.5 15.5t17.5 15.5q6 5 5 12v30h14v-23h19v4v4v3q0 10 2 11.5t13 -0.5v-23h19v25q21 -8 34.5 -23.5t27.5 -40.5h-22v-19h24q7 1 9 -6q1 -3 2 -6.5
t3 -9t3 -7.5h-41v-19q4 0 11.5 -0.5t13 -0.5t11.5 1q3 0 5.5 -0.5t4 -3t1.5 -5.5q0 -2 3 -22h-50v-19h51l1 -9q-1 -12 -3 -38t-3 -40v-4q0 -1 0.5 -2.5t0.5 -2.5q22 -35 21 -82q0 -21 -5 -63q-3 -20 6 -34q31 -57 58 -109q4 -6 2 -13q-6 -29 -31 -138zM352 338v-1l1 -1v-1
l1 -1v-1v-1l1 -1v-1l1 -1v-1v-1l1 -1v-1l1 -1v-1l1 -1v-1v-1l1 -1v-1l1 -1v-1v-1l1 -1v-1l1 -1v-1l1 -1v-1v-1l1 -1v-1l1 -1v-1v-1l1 -1v-1l1 -1v-1v-1l1 -1v-1l1 -1v-1l1 -1v-1v-1l1 -1v-1l1 -1v-1v-1l1 -1v-1l1 -1v-1l1 -1v-1v-1l1 -1v-1l1 -1v-1v-1l1 -1v-1l1 -1v-1l1 -1
v-1v-1l1 -1v-1l1 -1v-1v-1l1 -1v-1l1 -1v-1v-1l1 -1v-1l1 -1v-1l1 -1v-1v-1l1 -1v-1l1 -1v-1v-1l1 -1v-1l1 -1v-1l1 -1v-1v-1l1 -1v-1l1 -1v-1v-1l1 -1v-1l1 -1v-1l1 -1v-1v-1l1 -1v-1l1 -1v-1v-1l1 -1v-1l1 -1v-1l1 -1v-1v-1l1 -1v-1l1 -1v-1v-1l1 -1v-1l1 -1v-1v-1l1 -1
v-1l1 -1v-1l1 -1v-1v-1l1 -1v-1l1 -1v-1v-1l1 -1v-1l1 -1v-1l1 -1v-1v-1l1 -1v-1l1 -1v-1v-1l1 -1v-1l1 -1v-1l1 -1v-1l1 -2q-4 -2 -13 -8t-15.5 -10.5t-13.5 -8.5q-4 -3 -6.5 -6t-3.5 -9q-6 -30 -21 -103t-23 -112q-1 -8 -9 -7h-19q1 5 2 15.5t2 18t2 14.5q2 26 5.5 54.5
t7.5 65t6 53.5q0 4 0.5 11t1.5 12.5t2 11.5q0 3 1.5 6.5t3.5 8.5t3 8q-65 -53 -140 -22q-47 19 -74 75q68 -52 147 -20q77 32 85 118zM127 366q1 -11 3 -20.5t5.5 -18.5t7.5 -17t9.5 -14.5t11.5 -12t13 -10t15 -8t17 -5.5q20 -5 40.5 -2.5t39.5 13.5q18 10 31 25.5t23 36.5
q-1 -9 -3.5 -17t-6 -16t-8.5 -15.5t-10.5 -14t-12 -12.5t-13.5 -11t-14.5 -9.5t-15.5 -7.5t-17 -5q-64 -13 -111 23q-15 11 -17 29q-3 20 -1 41.5t10 40.5q1 3 2 5l1 1q0 1 1 1z" />
    <glyph glyph-name="uniE618" unicode="&#xe618;" 
d="M513 570h327q10 0 15 -4t6 -14q1 -4 1 -10v-10v-10q0 -5 -1 -10q-1 -9 -6 -13t-15 -4h-1h-1h-1h-1h-1h-1h-1h-1h-1h-1h-1h-1h-1h-1h-1h-1h-1h-1h-1h-1h-1h-1h-1h-1h-1h-1h-1h-1h-1h-1h-1h-1h-1h-1h-1h-1h-1h-1h-1h-1h-1h-1h-1h-1h-1h-1h-1h-1h-1h-1h-1h-1h-1h-1h-1h-1h-1
h-1h-1h-1h-1h-1h-1h-1h-1h-1h-1h-1h-1h-1h-1h-1h-1h-1h-1h-1h-1h-1h-1h-1h-1h-1h-1h-1h-1h-1h-1h-1h-1h-1h-1h-1h-1h-1h-1h-1h-1h-1h-1h-1h-1h-1h-1h-1h-1h-1h-1h-1h-1h-1h-1h-1h-1h-1h-1h-1h-1h-1h-1h-1h-1h-1h-1h-1h-1h-1h-1h-1h-1h-1h-1h-1h-1h-1h-1h-1h-1h-1h-1h-1h-1
h-1h-1h-1h-1h-1h-1h-1h-1h-1h-1h-1h-1h-1h-1h-1h-1h-1h-1h-1h-1h-1h-1h-1h-1h-1h-1h-1h-1h-1h-1h-1h-1h-1h-1h-1h-1h-1h-1h-1h-1h-1h-1h-1h-1h-1h-1h-1h-1h-1h-1h-1h-1h-1h-1h-1h-1h-1h-1h-1h-1h-1h-1h-1h-1h-1h-1h-1h-1h-1h-1h-1h-1h-1h-1h-1h-1h-1h-1h-1h-1h-1h-1h-1h-1
h-1h-1h-1h-1h-1h-1h-1h-1h-1h-1h-1h-1h-1h-1h-1h-1h-1h-1h-1h-1h-1h-1h-1h-1h-1h-1h-1h-1h-1h-1h-1h-1h-1h-1h-1h-1h-1h-1h-1h-1h-1h-1h-1h-1h-1h-1h-1h-1h-1h-1h-1h-1h-1h-1h-1h-1h-1h-1h-1h-1h-1h-1h-1h-1h-1h-1h-1h-1h-1h-1h-1h-1h-1h-1h-1h-1h-1h-1h-1h-1h-1h-1h-1h-1
h-1h-1h-1h-1h-1h-1h-1h-1h-1h-1h-1h-1h-1h-1h-1h-1h-1h-1h-1h-1h-1h-1h-1h-1h-1h-1h-1h-1h-1h-1h-1h-1h-1h-1h-1h-1h-1h-1h-1h-1h-1h-1h-1h-1h-1h-1h-1h-1h-1h-1h-1h-1h-1h-1h-1h-1h-1h-1h-1h-1h-1h-1h-1h-1h-1h-1h-1h-1h-1h-1h-1h-1h-1h-1h-1h-1h-1h-1h-1h-1h-1h-1h-1h-1
h-1h-1h-1h-1h-1h-1h-1h-1h-1h-1h-1h-1h-1h-1h-1h-1h-1h-1h-1h-1h-1h-1h-1h-1h-1h-1h-1h-1h-1h-1h-1h-1h-1h-1h-1h-1h-1h-1h-1h-1h-1h-1h-1h-1h-1h-1h-1h-1h-1h-1h-1h-1h-1h-1h-1h-1h-1h-1h-1h-1h-1h-1h-1h-1h-1h-1h-1h-1h-1h-1h-1h-1h-1h-1h-1h-1h-1h-1h-1h-1h-1h-1h-1h-1
h-1h-1h-1h-1h-1h-1h-1h-1h-1h-1h-1h-1h-1h-1h-1h-1h-1h-1h-1h-1h-1h-1h-1h-1h-1h-1h-1h-1h-1h-1h-1h-1h-1h-1h-1h-1h-1h-1h-1h-1h-1h-1h-1h-1h-1h-1h-1h-1h-1h-1h-1h-1h-1h-1h-1h-1h-1h-1h-1h-1h-1h-1h-1h-1h-1h-1h-1h-1h-1h-1h-1h-1h-1h-1h-1h-1h-1h-1h-1h-1h-1h-1h-1h-1
h-1h-1h-1h-1h-1h-1h-1h-1h-1h-1h-1h-1h-1h-1h-1h-1h-1h-1h-1h-1h-1h-1h-1h-1h-1h-1h-1h-1h-1h-1h-1h-1h-1h-1h-1h-1h-1h-1h-1h-1h-1h-1h-1h-1h-1h-1h-1h-1h-1h-1h-1h-1h-1h-1h-1h-1h-1h-1h-1h-1h-1h-1h-1h-1h-1h-1h-1h-1h-1h-1h-1h-1h-1h-1h-1h-1h-1h-1h-1h-1h-1h-1h-1h-1
h-1h-1h-1h-1h-1h-1h-1h-2q-20 0 -22 18q-1 9 -1 19t1 20q2 18 23 18h326zM636 467h147h24q4 0 8 -1.5t7.5 -3.5t6 -5t3.5 -7t1 -9v-97h-197v123zM191 344q0 86 1 96q0 12 8 19t20 8h143h26v-123h-198zM385 161v-121h-193v121h193zM418 344v122h190v-122h-190zM833 161v-121
h-191v121h191zM501 39q-13 0 -25.5 3.5t-22 9.5t-16 14t-9.5 17l12 -6q-6 24 -6 25q-2 19 5.5 34t22.5 27q8 5 12.5 11t5.5 14q1 3 0 10v5q9 -1 13.5 -6.5t6.5 -19.5q20 11 6 59q13 1 21 -10q4 -5 9 -12.5t8 -11.5t9 -13q0 -1 7 -16q3 4 11 13q6 -21 7 -22q10 -20 8 -49v-7
l2 -1q0 2 1 4t1.5 3.5t1.5 3.5t1.5 3.5t1.5 3.5q13 -28 -8 -57.5t-55 -28.5q28 17 28 48q-8 -2 -13 -4q1 3 2.5 7t2 6.5t0.5 6.5t-2 7q-5 -3 -8 -6l-6 22q-3 11 -7 25l-11 -11l-11 -11q-5 -5 -9 -10q-40 -41 3 -80zM312 313h184v-29q-14 -2 -26 -5t-23.5 -8.5t-21.5 -13.5
q-9 -6 -15.5 -13t-11.5 -15t-8 -17.5t-4 -19.5h-74v121zM713 192h-70q-5 23 -16 40t-27.5 27.5t-34 16t-40.5 9.5v28h188v-121zM283 313v-121h-91v121h91zM742 313h91v-121h-91v121z" />
    <glyph glyph-name="uniE619" unicode="&#xe619;" 
d="M112 234q38 71 75 118q78 98 197 139q27 10 59 21.5t67 24.5t59 22q1 0 27 4l1 -2q-8 -15 -8 -16q-18 -32 -20 -37q-6 -12 -3 -19.5t16 -12.5q39 -16 62 -34q37 -28 50 -72l2 1q40 51 105 60q6 1 102 8q1 -1 1 -2v-1q-1 -1 -2.5 -1.5t-2.5 -1.5t-2 -1q-24 -14 -42 -30
t-31.5 -37.5t-19.5 -46.5q-16 -64 2 -122.5t73 -100.5q3 -3 7.5 -6t8 -5.5t8.5 -6t9 -5.5l-1 -1q-20 0 -36 -0.5t-35.5 0t-35.5 1.5q-43 3 -75 25q-38 26 -47 80q-2 9 -4 21l-2 24q-2 12 -3 22q-15 81 -97 130q-66 39 -149 31q-84 -9 -143 -50q-34 -23 -56 -52q1 0 3.5 2
t4.5 3.5t4 2.5q56 45 105 55q120 25 194 -59q23 -27 33 -61.5t0 -74t-42 -71.5q-71 -71 -176 -62q-119 10 -197 115q-2 3 -45 67v14zM350 237q7 0 14 3t12 7.5t8 11.5t3 14q0 16 -11 27.5t-26 11.5q-6 0 -11.5 -2t-10.5 -5.5t-8.5 -8.5t-5.5 -10.5t-2 -11.5q0 -8 3 -14.5
t8 -11.5t12 -8t15 -3z" />
    <glyph glyph-name="uniE61A" unicode="&#xe61a;" 
d="M664 323q-52 -18 -291 -101q11 -33 12 -34q1 -5 15.5 -47.5t22.5 -65.5q7 -23 -10 -36q-19 -15 -35 -1q-9 8 -13 20q-18 52 -74 218q-4 12 -6.5 18.5t-6.5 18t-6.5 19t-6 18.5t-6 19t-6 18t-6.5 19q-9 28 14 40q13 7 25.5 1.5t17.5 -20.5q4 -10 7.5 -21.5t7.5 -22.5
t7 -21t7.5 -22t7.5 -22q0 -2 12 -37q108 37 291 101l-4 13q-5 12 -14.5 40t-16 49t-13.5 40q-1 2 -1.5 4t-1 4.5t-0.5 4.5t-0.5 4t-0.5 4q1 11 9 18.5t19 8.5q5 1 9.5 -0.5t8.5 -4t7.5 -6.5t5.5 -9q5 -17 28 -83q20 -59 31.5 -92.5t28.5 -84.5l31 -93q2 -6 2.5 -12
t-1.5 -11.5t-5.5 -9.5t-8.5 -7q-13 -8 -26 -2t-18 21l-13 38q-6 19 -14.5 43.5t-12.5 36.5q-1 4 -2.5 8.5t-3.5 10t-3 8.5zM789 434q26 9 27 10q9 3 17.5 2t14.5 -6.5t9 -13.5q2 -7 1.5 -13t-3 -11t-7.5 -9.5t-11 -7.5q-3 0 -6 -1.5t-6 -2.5t-5 -2q-5 -2 -7 -2.5t-2.5 -2.5
t0 -4t1.5 -7q24 -69 27 -80q3 -9 0 -18.5t-10.5 -15t-17 -6.5t-16.5 5q-11 9 -15 21q-15 42 -71 211q-6 19 -7 22q-2 4 -2 8.5t0.5 8.5t2.5 7.5t4.5 6.5t5.5 5.5t7 3.5q9 3 16.5 1.5t13.5 -7.5t9 -14q4 -12 8.5 -25t10 -29.5t8.5 -24.5q0 -1 3 -9zM228 171q-24 -9 -26 -10
q-14 -5 -25.5 -0.5t-16.5 17.5t1 24.5t20 16.5q2 1 27 11q0 1 -0.5 3.5t-1 4t-1.5 2.5q-26 78 -26 80q-6 18 4.5 31t28.5 10t25 -25q10 -29 69 -207q8 -23 9 -27q2 -5 2 -10t-1.5 -9.5t-4 -8.5t-6.5 -7t-8 -5q-6 -2 -12 -1.5t-11.5 3t-9.5 7.5t-6 12q-2 5 -26 78q-1 2 -2 6z
" />
    <glyph glyph-name="uniE61B" unicode="&#xe61b;" 
d="M659 693q48 -17 54 -54q5 -27 -9 -48t-40 -27q-16 -4 -32 0.5t-27.5 16t-16.5 27.5q-8 24 3 46.5t35 32.5q0 1 12 6h21zM563 437q-33 -46 -36 -50q-13 -19 -36 -19h-53h-54q-34 0 -34 29q0 14 9 21.5t26 7.5h21h20h20h21q13 1 21 12q18 23 49 70q25 38 70 37q16 -1 35 -1
h40h34q23 0 41.5 -9.5t29 -27t11.5 -40.5q1 -55 0 -197q0 -15 -8 -23.5t-21 -8.5q-9 0 -15.5 4t-10 11.5t-3.5 17.5v153v4v6q0 2 -0.5 4t-4.5 5l-3 2q0 -1 -2 -2q-2 -4 -2.5 -6t-0.5 -4v-5v-5v-465q0 -40 -33 -42q-9 -1 -16.5 1.5t-13 8t-8.5 14t-3 18.5v259v3v4v2v4
q-1 2 -4 6q-1 2 -2 3q-6 -8 -7 -9v-14v-257q0 -22 -12.5 -34t-31.5 -9q-29 6 -29 38q0 57 -0.5 106.5t-0.5 96.5v279h-2zM324 -38h79q9 48 27 140.5t27 138.5h47q-47 -245 -62 -325h-157q-16 85 -61 325h48q7 -41 25 -134.5t27 -144.5zM367 215q-8 8 -16 16.5t-16 16.5l7 6
l6 7l6 7l8 6l6 7q5 -5 16 -16.5t17 -17.5l-5 -5l-4 -4l-5 -5l-5 -5q-2 -2 -4.5 -4t-5 -4.5t-5.5 -4.5zM331 189h46v-46h-46v46zM337 344l32 -32l-7 -6q-3 -4 -6.5 -7t-6.5 -6l-7 -7l-7 -7q-4 4 -9 10t-11 13t-11 12q21 19 33 30z" />
    <glyph glyph-name="uniE61C" unicode="&#xe61c;" 
d="M804 -51h-59v542q0 15 -10.5 25.5t-25.5 10.5h-11q-7 0 -13.5 -2.5t-11.5 -7.5t-8 -11.5t-3 -14.5v-542h-57v675q0 15 -10.5 25.5t-25.5 10.5h-11q-14 0 -25 -10.5t-11 -25.5v-675h-56v325q0 15 -11 25.5t-25 10.5h-11q-4 0 -7.5 -0.5t-7 -2t-6 -3.5t-5 -4.5t-4.5 -5.5
t-3.5 -6t-2 -6.5t-0.5 -7.5v-325h-56v199q0 10 -5 18t-13.5 13t-17.5 5h-11q-15 0 -25.5 -10.5t-10.5 -25.5v-199h-82v9v253v297v59v73v59q0 21 -12 34.5t-33 15.5q-11 1 -20 -1.5t-16 -8t-11.5 -13.5t-5.5 -19q-1 -4 -1 -14v-496v-69v-73v-67v-72q0 -50 49 -63q11 -3 23 -3
h587h58h73h58q20 0 33.5 10.5t16.5 27.5q3 18 -2.5 32t-18 21.5t-30.5 7.5h-23v157q0 15 -10.5 25.5t-25.5 10.5h-11q-15 0 -25.5 -10.5t-10.5 -25.5v-157z" />
    <glyph glyph-name="uniE61D" unicode="&#xe61d;" 
d="M138 420v210q0 22 10.5 40.5t29 29t40.5 10.5h448q4 0 10 -1t11.5 -3t10.5 -5t9.5 -6.5t8.5 -6.5l153 -170q8 -10 14 -25t6 -28v-494q0 -10 -2 -18.5t-6 -16.5t-9.5 -15t-12.5 -12.5t-15 -9.5t-17 -6t-18 -2h-591q-33 0 -56.5 23.5t-23.5 56.5v176h76v-159
q0 -6 2.5 -11.5t6.5 -9.5t9.5 -6.5t11.5 -2.5h548q12 0 21 9t9 21v452h-132q-7 0 -14 1.5t-12.5 4.5t-11 7t-9.5 9.5t-7 11t-4.5 12.5t-1.5 14v143h-386q-8 0 -15 -4t-11 -11t-4 -15v-193h-76zM135 332h263v71q0 17 9.5 22t23.5 -4l179 -122q14 -9 14 -22.5t-14 -22.5
l-179 -121q-9 -6 -16.5 -6t-12 6t-4.5 17v80h-263v102z" />
    <glyph glyph-name="uniE61E" unicode="&#xe61e;" 
d="M165 -66v49v54v47v54v50q0 4 1.5 8t3.5 6q98 100 336 345q1 0 3 2l4 3l1 -2q1 -3 2 -4.5t2 -2.5q61 -61 112.5 -113.5t110.5 -112t113 -113.5q9 -9 8 -21v-91q-6 1 -10.5 2.5t-7 2t-4.5 1t-4 0.5t-4 1t-6.5 2t-10.5 2q-2 1 0 76l-309 305l-293 -305v-256l604 -2v103
q23 -6 35 -9q8 -2 8 -8v-121l-1 -4h-694v14v12v13v13zM513 623l-31 -31l-30 -30q-15 -15 -30.5 -31t-31 -31t-30.5 -30l-30 -30l-30 -30l-68 -68l-77 -77l-67 -67l-25 25l-30 30q0 1 1.5 2t2.5 2.5t2 2.5q249 249 439 441q33 33 67 0q101 -102 207 -208l234 -234l6 -6
l-17 -17l-20 -20l-17 -17q-45 45 -194 193.5t-231 230.5zM697 115q39 -10 132 -33.5t144 -36.5q-1 -4 -2.5 -9.5t-3 -9.5t-2.5 -9.5t-3 -9.5q-6 1 -18.5 4.5t-22.5 5.5t-18 5q-151 38 -204 52q-11 2 -15 -7q-47 -100 -155 -117q-49 -9 -96.5 8.5t-81.5 55t-46 86.5
q-20 88 29.5 161t139.5 86q81 11 148 -40.5t77 -132.5q2 -16 1 -30q0 -2 -3 -29zM500 309q-67 0 -114.5 -47.5t-47.5 -114.5q1 -44 22.5 -81t59 -58.5t81.5 -21.5q67 0 114 47t47 114q0 33 -13 63t-34.5 52t-51.5 34.5t-63 12.5zM378 148q0 25 9.5 47.5t26 39t39.5 26.5
t48 9q50 0 86 -36t36 -87q0 -25 -10 -48t-26.5 -39t-39 -25.5t-48.5 -9.5q-33 0 -61 16.5t-44.5 45t-15.5 61.5z" />
    <glyph glyph-name="uniE61F" unicode="&#xe61f;" 
d="M784 11q41 31 41 82q0 43 -30.5 73.5t-73.5 30.5t-73 -30.5t-30 -73.5q0 -53 43 -84v-128l61 40l62 -40v130zM826 -69h106q24 0 42 17.5t18 42.5v669q0 25 -18 42.5t-42 17.5h-840q-24 0 -42 -17.5t-18 -42.5v-669q0 -6 1 -11t3 -10t4.5 -9.5t6 -8.5t7.5 -7t8.5 -6
t9 -4.5t10 -2.5t10.5 -1h511q-22 26 -30 60h-441q-16 0 -28 11.5t-12 28.5v589q0 17 12 28.5t28 11.5h760q10 0 19.5 -5.5t15 -14.5t5.5 -20v-589q0 -28 -26 -38q-8 -2 -14 -2h-35q-4 -17 -12 -32t-19 -28zM218 421h-37q-12 1 -14.5 7t6.5 14l151 139l150 -139q9 -8 6.5 -14
t-14.5 -6h-36v-69h-84v69h-44v-69h-84v68zM574 548q0 13 8.5 21.5t21.5 8.5h192q5 0 9.5 -1.5t8 -4t6.5 -6.5t4.5 -8.5t1.5 -9.5v-20q0 -8 -4 -15t-11 -11t-15 -4h-192q-8 0 -15 4t-11 11t-4 15v20zM574 406q0 6 2.5 12t6.5 10t9.5 6t11.5 2h192q12 0 21 -8.5t9 -21.5v-20
q0 -6 -2.5 -11.5t-6.5 -9.5t-9.5 -6.5t-11.5 -2.5h-192q-5 0 -9.5 1.5t-8 4.5t-6.5 6.5t-4.5 8t-1.5 9.5v20zM159 263q0 13 9 21.5t21 8.5h607q12 0 21 -8.5t9 -21.5v-20q0 -12 -9 -21t-21 -9h-607q-12 0 -21 9t-9 21v20zM164 119q0 8 4 15t11 11t15 4h288q13 0 21.5 -9
t8.5 -21v-20q0 -9 -4 -15.5t-11 -10.5t-15 -4h-288q-8 0 -15 4t-11 10.5t-4 15.5v20z" />
    <glyph glyph-name="uniE620" unicode="&#xe620;" 
d="M161 -51h224h524q18 0 31 -7.5t18 -21.5t3 -31q-3 -18 -17 -28.5t-34 -10.5h-188h-588q-12 0 -23 3q-48 13 -48 63q-1 41 -1 281v496q0 10 1 14q8 45 54 42q8 -1 15 -3.5t12 -7t9 -10.5t6 -13.5t2 -15.5v-191v-330v-220v-9zM719 584q-6 2 -13.5 5t-13.5 5t-14 5.5
t-14 5.5q12 10 31 25t33 26.5t31 25t33.5 26.5t31.5 25q4 -23 14.5 -93t16.5 -108q-18 7 -31.5 12t-27.5 10q-15 -39 -16 -41q-7 -16 -22 -55t-26.5 -68t-21.5 -56q-2 -3 -1.5 -6.5t2.5 -6.5q14 -22 14.5 -44.5t-13.5 -44.5q-29 -45 -82 -37q-50 8 -65 58q-3 8 -10 11
q-11 4 -26 9t-29.5 10.5t-25.5 9.5q-5 1 -12 -2l-10 -4q-5 -2 -10 -4.5t-10 -4.5q-2 -1 -3.5 -2t-2.5 -2.5t-2 -2.5q-23 -57 -41 -103q-2 -5 2 -11q13 -20 13 -43.5t-11.5 -43t-32.5 -30.5q-22 -10 -44 -9t-41 15t-28 36q-9 23 -5 45.5t20.5 40.5t39.5 23q3 1 5.5 2.5t4 3.5
t3.5 6q16 42 38 96q3 8 -1 14q-14 22 -14 44.5t14 44.5q28 42 78 36q26 -3 43.5 -18t25.5 -40q2 -8 10 -11q37 -13 79 -28q7 -3 14 1q5 3 15 7.5t13 5.5l4 2q2 1 3.5 2.5t1.5 3.5q24 60 85 216q0 1 1 2v3z" />
    <glyph glyph-name="uniE621" unicode="&#xe621;" 
d="M913 226l3 8q55 7 75 9v35v40v35q-53 7 -75 9q-1 5 -4 16t-5.5 18.5t-5.5 15t-6 14t-8.5 18.5t-6.5 14q-2 2 -4.5 6.5t-4.5 8t-1.5 6.5t2.5 6t6 7t5 6q1 0 32 41l-77 77l-7 -5l-12 -9q-8 -6 -12.5 -10t-11.5 -9t-12 -10q-6 -5 -13 -1q-8 6 -28 16q-7 4 -15 7.5t-16 6.5
t-16 5.5t-16.5 5t-17.5 3.5q-1 13 -2.5 26.5t-3 24.5t-3.5 25h-110q0 -4 -1 -9.5t-1.5 -10t-1 -9.5t-1 -9.5t-1 -9.5t-1.5 -10t-1 -10q-1 -8 -8 -9q-48 -11 -91 -35q-16 -10 -18 -10q-2 1 -4.5 2.5t-4.5 3t-4 4.5l-4 3q-5 4 -43 33l-78 -78q7 -8 23 -28.5t25 -31.5
q-25 -39 -37 -76h3h6q9 -1 30 -2t36.5 -1.5t29.5 -1.5q4 0 6.5 1.5t4.5 4.5q12 24 29.5 43t39.5 33q36 24 77.5 32.5t80.5 2t75.5 -28t62.5 -55.5q54 -72 42.5 -161.5t-82.5 -142.5q-23 -18 -48 -29q-38 -16 -79 -17t-78.5 12t-69.5 40t-53 66q-3 7 -10 6q-9 -2 -19 -3
t-20 -2.5t-18.5 -2.5t-19.5 -2.5t-19 -2.5q-1 0 -7 -2l36 -72q-4 -4 -10.5 -12t-10.5 -14t-10 -13t-11 -13q-3 -5 -3 -7.5t4 -6.5q9 -8 18 -17t21.5 -22t17.5 -18l14 -14l6 4q40 31 45 36q6 5 10 5.5t11 -3.5q37 -24 84 -37q2 0 4.5 -0.5t4.5 -0.5l4 -2q2 0 4 -1t3 -2
q1 -2 4 -22q1 -7 6 -52q28 0 110 -1q7 59 8 69q1 7 8 9q56 12 103 43q3 1 5 1l61 -47l79 79q-36 45 -45 57q-3 4 1 10q9 15 17 31.5t14 34t10 35.5zM496 250q8 1 11 -6q4 -11 11 -20q12 -19 29.5 -32.5t38.5 -19.5q58 -20 111 13q5 3 9 6t8.5 7t8.5 8t7 9q-10 2 -11 2
q-4 1 -40.5 7t-55.5 9q-18 3 -26 14.5t-6 28.5q2 12 4.5 25t4.5 27q3 18 14.5 26t29.5 5q9 -1 19 -2.5t20 -3.5t19.5 -3.5t20.5 -3t19 -3.5l9 -1q-10 29 -32 50q-47 45 -111 36t-96 -67q-3 -5 -10 -5q-44 1 -101.5 2t-103 2t-102 2.5t-102.5 2.5q-26 1 -41 -7l-12 -13
q-7 -20 -7 -21q-1 -21 0 -42q2 -20 20 -32q12 -9 36 -9q60 2 192 4.5t202 4.5h7h6zM123 283q-9 -9 -21 -9t-21 8.5t-9 21t9 21t21 8.5t20 -9q6 -6 8 -13.5t0 -14.5t-7 -13z" />
    <glyph glyph-name="uniE622" unicode="&#xe622;" 
d="M646 684q199 -83 288 -121v-651q-56 15 -152.5 54.5t-137.5 52.5q-196 -80 -266 -108q-41 16 -138 54.5t-151 60.5v664q44 -17 140 -54t148 -57q242 94 269 105zM405 538l3 -566l210 87v564zM136 62q40 -16 114 -46t101 -41v562q-75 28 -215 80v-555zM888 -21v550
q-40 17 -118 50.5t-97 41.5v-562q26 -10 215 -80z" />
    <glyph glyph-name="uniE623" unicode="&#xe623;" 
d="M912 140q-1 3 -0.5 6.5t1.5 6.5q34 77 32 158q-4 139 -106 245.5t-258 134.5q-8 2 -17.5 3t-21 2t-18.5 2q-2 0 -7 1q-2 1 -3 1h-50q-46 -6 -49 -6q-138 -20 -239.5 -103.5t-131.5 -202.5q-27 -104 7.5 -203.5t120.5 -172t204 -98.5q210 -46 389 69q10 7 21 3
q32 -11 152 -52l6 -2l6 -2q16 -4 24 -1t15 15v10q-5 11 -15.5 36t-16.5 39.5t-14.5 35t-16 39t-14.5 36.5zM922 -6q-2 -4 -5.5 -5t-6.5 0l-2 1h-2l-5 2q-3 1 -4 1q-9 3 -22 7.5t-22 7.5t-21.5 7t-22 7.5t-21 7.5t-22.5 8q-5 2 -9 1.5t-9 -3.5q-77 -50 -169 -68.5t-184 0.5
q-102 23 -176 85t-103.5 148t-6.5 175q26 102 113.5 174t206.5 89q6 1 13 1.5t15.5 2t13.5 1.5h42l9 -2q6 0 16 -1t18 -2t15 -3q53 -9 100.5 -30.5t85.5 -52.5t66 -69t44 -83t17 -92q1 -35 -6 -68.5t-21 -66.5q-3 -7 -2 -11q16 -38 67 -161q0 -1 0.5 -2.5t0.5 -3t-1 -2.5z
M478 355q-24 0 -41.5 -16.5t-17.5 -41.5q-1 -16 7 -29.5t21.5 -21.5t29.5 -8q25 0 42 17t18 40q0 25 -17 42.5t-42 17.5zM261.5 355q-24.5 0 -42 -17t-17.5 -42q0 -24 17.5 -41t41.5 -17q25 0 42 17t18 41q0 25 -17.5 42t-42 17zM694 355q-25 0 -42 -17t-17 -42
q0 -11 4.5 -22t12.5 -19t18.5 -12.5t22.5 -4.5q25 0 42.5 17t17.5 41.5t-17 41.5t-42 17z" />
    <glyph glyph-name="uniE624" unicode="&#xe624;" 
d="M640 712h11q1 -1 3.5 -2t4 -2t3.5 -2l4 -2l4 -2q244 -118 304 -147l6 -4q3 -2 6.5 -5t5.5 -5v-10q-15 -12 -16 -12q-4 -3 -8.5 -5t-11 -5t-9.5 -4l-25 -12q5 -3 17 -8.5t20 -9.5l16 -8q1 -1 3 -2t3 -2t3 -2l2 -2q2 -1 4 -3l2 -2v-11q-18 -13 -19 -13l-9 -4l-9 -5
q-4 -2 -9.5 -4.5t-8.5 -3.5q-1 -1 -18 -9q50 -24 56 -27q1 -1 17 -13v-11q-2 -2 -4.5 -4t-4.5 -3.5t-4.5 -3t-4.5 -2.5q-1 -1 -32 -15q-3 -2 -6 -3t-5 -2.5t-5.5 -3t-6.5 -2.5q5 -3 17.5 -9t21.5 -11l17 -8q3 -1 5.5 -3t6 -5t5.5 -4v-12q-1 -1 -3 -2.5t-3.5 -2.5t-3.5 -2.5
t-4 -2.5t-3 -2q-1 0 -30 -14l-26 -13q49 -24 56 -27q1 0 17 -13v-11q-2 -1 -5.5 -4t-6.5 -5l-6 -4q-52 -25 -272 -128q-33 -16 -304 -144h-12l-5 3q-5 2 -7 4q-19 10 -54 28.5t-56 30t-53 28.5t-56 30t-53 28.5t-55 29.5q-2 1 -4 3l-3 4q-2 1 -4.5 3t-3.5 3v10q2 1 5.5 4
t6 5t5.5 3q6 3 56 24l-4 2q-3 2 -5 3q-5 3 -15.5 8.5t-18.5 9.5t-15 9q-1 0 -15 12v10q16 12 17 13q6 2 55 23q-1 1 -3 2l-5 3q-46 25 -48.5 26.5t-5 3.5t-5.5 5t-5 4v10q16 12 17 13q3 1 6.5 3t7 3.5t7 2.5t7 2.5t6.5 3.5q1 0 22 9q-5 3 -12 7l-12 6q-5 2 -11 5.5
t-11.5 6.5t-10.5 6q-3 1 -5.5 3t-5.5 5l-5 5v9q16 13 17 13q6 3 53 23q-6 3 -14 7.5t-13.5 7.5t-13 6.5t-13.5 7.5q-3 1 -5.5 3.5t-5.5 5t-5 4.5v11l15 11q40 17 394 166q10 4 199 84zM289 516q216 -121 276 -154q8 -4 11 -9.5t3 -12.5v-320q0 -2 1 -7l9 4q150 70 182 85
q9 4 9 13q-1 78 -1 161.5t1 161.5q0 6 -2.5 9t-7.5 6q-27 15 -55 30.5t-54.5 30.5t-54.5 30.5t-54.5 30.5t-54.5 30q-8 5 -17 1q-31 -13 -191 -80q-1 -1 -2.5 -1.5t-3.5 -1.5t-3 -2q1 0 3 -1t3.5 -2t2.5 -2zM94 443l5 -3q238 -128 288 -155q6 -2 13 1q16 8 83 39q4 2 40 19
q-5 4 -6 4q-233 130 -273 152q-6 4 -13 1q-20 -8 -40 -16.5t-50 -21.5t-40 -17q-1 0 -4 -2zM930 536l-4 2q-194 95 -277 135q-5 2 -12 -1q-11 -4 -24 -9.5t-21.5 -9t-25.5 -11t-22 -9.5l-13 -6q1 0 2 -1q3 -2 4 -2q19 -11 63 -35.5t68.5 -38t61 -34t66.5 -37.5q7 -3 14 0
q12 6 113 54zM93 85q211 -114 295 -158q5 -3 10 0q59 27 135 63q6 3 6 6v48q-1 -1 -3.5 -2t-4 -1.5t-2.5 -1.5q-11 -5 -30 -14t-31.5 -14.5t-29 -13.5t-30.5 -15q-16 -8 -32 1q-78 42 -224 120q-7 3 -10 2q-8 -3 -49 -20zM539 134q-1 0 -4 -2q-4 -1 -6 -2q-102 -49 -122 -58
q-15 -7 -31 1q-21 11 -51.5 27.5t-53.5 28.5t-51.5 27.5t-52.5 29.5q-25 14 -45 1q-1 0 -29 -12q211 -113 295 -158q5 -2 10 0q60 28 135 64q6 2 6 5v48zM539 225q-10 -5 -11 -5q-7 -4 -36.5 -17.5t-48 -22.5t-36.5 -18q-15 -7 -30 1q-8 4 -86.5 46t-118.5 65q-31 17 -55 2
q-1 -1 -24 -11q209 -111 295 -158q5 -2 9 0q64 30 137 64q2 1 3.5 3t1.5 3v48zM94 356q1 -1 3 -2l4 -2q228 -123 285 -153q3 -2 5 -2.5t4.5 0t4.5 2.5q95 45 115 53q29 12 24 37v23q-11 -5 -12 -6q-100 -47 -122 -57q-14 -7 -26 0q-5 3 -11 6t-10.5 5.5t-11 6t-9.5 5.5
q-139 74 -188 100q-7 4 -10 3q-7 -3 -13.5 -5.5t-18 -7.5t-13.5 -6zM931 359q-41 20 -51 24q-3 1 -7 -1q-22 -10 -49 -23q-4 -2 -4 -4q-1 -10 -1 -49q13 6 28.5 13.5t27.5 13t28 13t28 13.5zM819 216q31 14 58 27t54 25q-41 20 -50 25q-4 1 -8 -1q-26 -12 -49 -23
q-4 -2 -4 -6q-1 -8 -1 -47zM819 125q79 37 112 53q-4 2 -12.5 6t-13.5 6.5t-12 5.5t-12 6q-4 2 -9 -1q-26 -12 -47 -22q-5 -3 -5 -7q0 -2 -0.5 -4.5t-0.5 -5.5v-4v-6v-6v-4v-6v-5v-6zM819 396q27 13 53.5 25.5t58.5 27.5q-39 19 -48 23h-3q-2 0 -4 -1q-14 -6 -27 -13
l-25 -12q-4 -2 -4 -5q-1 -8 -1 -45zM615 453q4 -2 13.5 -7t15.5 -8q-3 -2 -9 -5.5t-8 -4.5q-20 11 -22 12q-6 3 -12 0q-17 -7 -31 -11q-7 -2 -10.5 -2.5t-6.5 0.5t-5 3.5t-6 8.5q31 8 34 9q6 2 11.5 5t10.5 7q10 7 8.5 15t-13.5 14q-16 7 -40 3q-9 -2 -28 -6t-29 -5
q-11 -2 -24 -1.5t-24 3.5q-49 16 -16 51q-5 2 -13.5 7t-13.5 7q8 6 11 7.5t6.5 1t10.5 -5.5q16 -9 29 -1q1 1 3.5 2t4 1.5t4.5 1t4 1.5q12 3 15.5 1.5t9.5 -11.5q-18 -5 -19 -5q-21 -9 -30 -15q-8 -6 -7 -12.5t11 -11.5q14 -7 33 -3q7 1 30.5 5.5t36.5 6.5q9 1 17 1
t16.5 -1.5t16.5 -4.5q47 -18 15 -53z" />
    <glyph glyph-name="uniE625" unicode="&#xe625;" 
d="M867 518l-153 170q-5 6 -14 11t-18.5 8t-17.5 3h-448q-21 0 -39.5 -10.5t-29.5 -29t-11 -40.5v-341h76v324q0 6 2.5 11.5t6.5 9.5t9.5 6.5t11.5 2.5h386v-143q0 -10 3.5 -19t9 -16.5t12.5 -13t16.5 -8.5t18.5 -3h132v-452q0 -5 -1.5 -9.5t-4.5 -8t-6.5 -6.5t-8 -4.5
t-9.5 -1.5h-278v-67h295q33 0 56.5 23.5t23.5 56.5v494q0 30 -20 53zM326 270q-79 0 -134.5 -55.5t-55.5 -134t55.5 -134t134 -55.5t134 55.5t55.5 133.5q0 89 -69 146q-53 43 -120 44zM437 70q0 -2 -1 -4l-2 -6q-1 -2 -3 -4t-4 -3t-5 -2t-5 -1h-61v-61q0 -8 -6 -14t-14 -6
h-20q-8 0 -14 6t-6 14v61h-61q-4 0 -8 2t-6.5 4.5t-4 6t-1.5 7.5v20q0 6 2.5 10.5t7 7t10.5 2.5h61v61q0 9 6 14.5t14 5.5h20q3 0 6 -1t5.5 -2.5t4.5 -4t3 -5.5t1 -7v-61h61q8 0 14 -6t6 -14v-20z" />
    <glyph glyph-name="uniE626" unicode="&#xe626;" 
d="M33 -35q4 25 4 26q17 77 84 126q40 29 134 69q18 7 38 20q18 11 19 35v4v6q3 27 -16 46q-8 7 -14.5 18.5t-9.5 18.5l-9 21q-2 4 -4.5 7.5t-5.5 6.5q-38 36 -33 85q0 9 3 16.5t8 14t12 11.5q9 7 6 19q-1 6 -2.5 15.5t-3.5 18t-4 15.5q-19 79 48 133q46 37 112.5 42.5
t116.5 -24.5q6 -3 12.5 -8.5t14 -12t11.5 -9.5t7 -5t6 -2q41 -7 46 -53q1 -5 1.5 -10.5t0.5 -10t-1 -11t-1 -9.5t-1 -11t-1.5 -9.5t-2 -10.5t-1.5 -10q-1 -4 -3 -15t-3 -18t3 -10q22 -16 26.5 -42.5t-4.5 -47.5q-8 -22 -30 -42q-6 -5 -9 -12q-8 -21 -18 -38.5t-23 -31.5
q-3 -3 -5 -6q-9 -18 -2.5 -42.5t23.5 -35.5q2 -1 25 -14q-2 -7 -9 -22.5t-11 -23.5q-33 15 -52 31t-24 45q-4 29 0 69q1 14 16 32q7 7 12 14.5t10 16.5t9 17q10 28 28 44q8 7 14 25q5 16 -10 25q-25 15 -20 54q2 11 4 25l6 30q2 14 4 25q1 8 0 19q-1 7 -4.5 10t-9.5 2
q-9 -2 -15 1.5t-12 12.5q-9 15 -22 24.5t-27 14.5t-31 8q-20 2 -38.5 1t-37 -7t-35.5 -15q-34 -19 -44 -51q-2 -5 -2 -12t0.5 -11t2 -12.5t1.5 -10.5l3 -15q5 -37 7 -56q2 -10 -3 -19t-14 -16q-12 -8 -14 -17.5t5 -22.5q5 -9 13 -15q14 -11 21 -29q15 -40 38 -63
q7 -7 11 -16t4 -20q1 -4 1 -8v-10q0 -4 -0.5 -8.5t-0.5 -9t-0.5 -9t-0.5 -9t-1 -8.5q-4 -32 -31 -50q-19 -12 -63 -34q-9 -5 -43.5 -21t-52.5 -26q-58 -32 -79 -93q-9 -26 -6 -72q0 -9 8 -9q2 0 6 -0.5t6 -0.5h494q4 0 7 -0.5t5.5 -2.5t5.5 -5q5 -5 46 -43h-2h-5h-554
q-12 0 -24 3q-17 4 -27.5 15t-14.5 28q0 1 -2 7v51zM992 46q-5 -25 -6 -26q-15 -71 -70.5 -115.5t-125.5 -43.5q-71 1 -126 46.5t-69 117.5q-11 57 9 111.5t64.5 90t101.5 41.5q82 9 145.5 -42.5t74.5 -135.5l2 -6v-38zM750 107h-8h-8h-7h-8h-8h-7h-8h-7q-11 0 -16.5 -5.5
t-6.5 -17.5v-35q0 -15 6 -20.5t20 -5.5h58v-64q0 -10 5.5 -15.5t15.5 -6.5h5h4h4h6h4h4h6h4h5q9 1 14.5 6.5t5.5 15.5v39v25h62q10 0 15.5 5.5t6.5 15.5q0 22 -1 43q0 9 -5.5 14.5t-14.5 5.5h-44h-6h-7h-6v61q0 4 -0.5 7t-1.5 5.5t-2 4.5t-3 3.5t-4.5 2.5t-5.5 1.5t-7 0.5
h-18h-18q-23 0 -23 -24v-62z" />
    <glyph glyph-name="uniE627" unicode="&#xe627;" 
d="M62 410q6 15 25 17q3 1 6 1t6.5 1t5 1t6.5 1t6 1q7 1 12 1t8.5 -3t5.5 -7.5t4 -11.5q17 -96 25 -145q2 -11 -2.5 -17.5t-15.5 -8.5q-21 -4 -37 -6q-24 -4 -28 20q-23 132 -25 144q0 1 -2 5v7zM920 432q-23 -9 -20 -25q2 -17 26 -17q1 -8 2 -23.5t1 -21.5q13 2 14 2
q12 5 13 -8q1 -10 1.5 -19.5t-0.5 -18.5q-1 -4 -2 -8.5t-3 -10.5l-3 -9l-6 9q-18 25 -40 40t-48 20t-56 -1q-88 -16 -112 -105q0 -1 -0.5 -4t-1.5 -4q-1 -3 -3 -4.5t-4 -2.5q-20 -3 -43.5 -7.5t-42.5 -8t-44 -8t-43 -7.5q-10 -2 -15 6q-51 77 -140 65q-87 -12 -116 -98
q-2 -3 -2.5 -6.5t-1.5 -6.5q-1 -10 -9 -11q-10 -2 -15 7q-15 24 -16 52q-1 6 0 9t4 5t9 3q3 0 8 2h5q-1 5 -2.5 14t-2.5 16t-2 13q-1 10 -4.5 36t-5 40t-4 35t-4.5 38q-2 16 -4 74q0 2 0.5 5.5t0.5 5.5t0.5 6t0.5 6q2 16 20 26q29 17 78 28q89 21 174 19q21 0 62 -5
q33 -4 66 -31q35 -30 89 -76q6 -6 14 -5q53 4 86.5 5.5t86.5 -1.5q20 -2 33 -8t20 -21q1 -3 2 -4v-1zM606 447l-3 4q-5 5 -15 14l-18 15q-7 6 -16 14t-17 14q-15 13 -41 15q-19 0 -28 -1q-5 0 -54 -6q2 -8 6 -28.5t6.5 -34.5t4.5 -28q2 -9 12 -8q5 2 74 14q10 2 89 16z
M374 405q-6 31 -6 34q-1 3 -3 14.5t-3 16.5t-2.5 13.5t-2.5 15.5v1q-2 7 -7 6q-10 -1 -21.5 -3t-21 -3.5t-21.5 -3.5t-21 -4q-13 -2 -12 -15q4 -33 6 -53q0 -2 7 -38q15 3 33.5 6t39.5 7t35 6zM805 113q-39 17 -54 50t-7 66q5 16 14 29.5t21.5 23t28.5 15t33 5.5t33 -5.5
t28.5 -15t22 -23t13.5 -28.5q5 -23 1.5 -45t-20 -42t-42.5 -31q7 -5 13.5 -12.5t10.5 -13.5t10 -16l9 -15l2 -4l2 -4q3 -7 0.5 -12t-9.5 -7q-2 0 -3.5 -0.5t-3.5 -0.5h-3h-129h-6q-10 1 -13 7.5t2 15.5q3 4 7.5 12.5t8 14.5t8 12.5t10.5 12.5t12 11zM796 205q0 -12 6 -22.5
t16 -16.5t23 -6q19 0 32 12.5t14 31.5q0 18 -13 31.5t-32 13.5q-18 0 -32 -13t-14 -31zM266 125q0 41 29.5 69t72.5 28q40 0 69 -29t28 -70q0 -40 -29.5 -68.5t-71 -28t-70 29.5t-28.5 69zM366 169q-19 0 -32.5 -13.5t-13.5 -31.5t13.5 -31t32.5 -13q18 0 31.5 13.5
t13.5 31.5t-13.5 31t-31.5 13z" />
    <glyph glyph-name="uniE628" unicode="&#xe628;" 
d="M267 327h27q8 0 14 6t6 14v28q0 5 -2.5 9.5t-7.5 7.5t-10 3h-27q-3 0 -5 -1l-6 -2q-2 -1 -4 -3l-2 -4q-2 -2 -2.5 -5t-0.5 -5v-28q0 -8 5.5 -14t14.5 -6zM393 327h375q8 0 14 6t6 14v28q0 8 -6 14t-14 6h-375q-9 0 -14.5 -6t-5.5 -14v-28q0 -2 0.5 -4t1.5 -4l2 -4
q1 -2 3 -3.5t4 -2.5t4 -1.5t5 -0.5zM393 58h173q4 0 7.5 1.5t6 4.5t4.5 6.5t2 7.5v27q0 6 -3 10.5t-7.5 7t-9.5 2.5h-173q-6 0 -10.5 -2.5t-7 -7t-2.5 -10.5v-27q0 -5 2.5 -10t7 -7.5t10.5 -2.5zM393 193h375q8 0 14 5.5t6 14.5v27q0 8 -6 14t-14 6h-375q-9 0 -14.5 -6
t-5.5 -14v-27q0 -9 5.5 -14.5t14.5 -5.5zM267 193h27q4 0 7.5 1.5t6.5 4t4.5 6.5t1.5 8v27q0 4 -1.5 8t-4.5 6.5t-6.5 4t-7.5 1.5h-27q-6 0 -10.5 -2.5t-7 -7t-2.5 -10.5v-27q0 -9 5.5 -14.5t14.5 -5.5zM267 58h27q8 0 14 6t6 14v27q0 6 -2.5 10.5t-7.5 7t-10 2.5h-27
q-6 0 -10.5 -2.5t-7 -7t-2.5 -10.5v-27q0 -8 5.5 -14t14.5 -6zM808 710h-592q-33 0 -56.5 -23.5t-23.5 -56.5v-659q0 -22 11 -40.5t29.5 -29t39.5 -10.5h448q6 0 13.5 1.5t14 4.5t12.5 7.5t10 8.5l154 170q8 10 14 25t6 28v494q0 33 -23.5 56.5t-56.5 23.5zM820 161h-131
q-25 0 -42.5 -17.5t-17.5 -42.5v-143h-387q-12 0 -21 9t-9 21v481h608v-308zM820 536h-608v77q0 4 1 8t3 7t5 6q4 4 9.5 6.5t11.5 2.5h548q13 0 21.5 -9t8.5 -21v-77z" />
    <glyph glyph-name="uniE629" unicode="&#xe629;" 
d="M828 299v93v114v92q0 39 -11.5 64t-36 37t-61.5 12h-419q-55 0 -81.5 -27t-26.5 -83v-603q0 -38 11.5 -62t35.5 -36t61 -12q191 -1 421 0q107 0 107 107v304zM782 -4q-1 -37 -13 -49.5t-48 -12.5h-211h-211q-36 0 -48 12.5t-13 49.5v606q1 26 6 38.5t17.5 18t37.5 5.5
h105h106h211q25 0 37.5 -5.5t17.5 -18t5 -37.5q1 -31 1 -307v-50v-50v-50v-51v-49v-50zM737 21v274v282q1 23 -8 33t-32 10q-46 -1 -93 -1h-93h-46h-20h-20h-20h-20q-10 0 -20 0.5t-20 0.5h-20q-6 0 -10 -1h-5h-1q-2 -1 -4 -1q-2 -1 -3 -1l-1 -1h-1q-1 -1 -2 -1t-1 -1
q-2 -1 -3.5 -2t-2.5 -2t-2 -3l-1 -2q-3 -4 -4 -10t-1 -14v-2q1 -279 0 -560v-3v-2v-3v-3q2 -11 7 -17.5t13 -9.5t22 -3q189 2 372 0q22 0 31.5 10t8.5 33zM331 412h85v-88h-85v88zM416 187h-86v87h86v-87zM416 464h-84v84h84v-84zM467 548h86v-86h-86v86zM552 412v-88h-84
v88h84zM467 274h86v-87h-86v87zM553 51h-86v87h86v-87zM602 411h87v-87h-87v87zM689 188h-86v87h86v-87zM692 459h-89v89h89v-89zM394 526h-8h-6h-6h-7h-7h-6v-42h40v42zM626 525h39v-41h-39v41zM626 207h6q4 0 7 0.5t5 0.5h6h4h3q1 0 4.5 0.5t4.5 0.5v42h-40v-44zM354 388
h41v-42h-41v42zM354 252h40v-42h-40v42zM625 388h41v-41h-41v41zM531 482v44h-40v-44q8 1 21 0.5t19 -0.5zM491 114h39v-42h-39v42zM491 251h39v-42h-39v42zM491 390h38v-43h-38v43z" />
    <glyph glyph-name="uniE62A" unicode="&#xe62a;" 
d="M168 93v470q5 11 20 11h324h323q7 0 12 -2.5t7 -8.5v-470q-6 -10 -19 -9h-40l-1 -9q-2 -19 -16.5 -33.5t-32.5 -15.5h-32q-9 0 -18 3t-16 8.5t-12.5 13.5t-7.5 17q0 1 -3 16h-297q0 -1 -0.5 -3t-0.5 -4v-3q-2 -13 -10 -24t-19.5 -17.5t-24.5 -6.5h-28q-19 0 -34 11.5
t-20 30.5q-1 3 -2 11q0 3 -1 5h-30q-14 -1 -21 9zM825 113v431h-628v-431h628zM249 84q-1 -9 1.5 -15t8 -10t13.5 -4h35q7 0 12.5 4t8 10.5t1.5 14.5h-80zM686 84q-1 -15 5.5 -22t19.5 -7h6h7h6h7h6q12 0 18 8t4 21h-79zM469 516h113h112q9 0 13.5 -4.5t4.5 -14.5
q-1 -22 -1 -149v-60v-70v-59q0 -9 -4 -13t-13 -4h-1h-1h-1h-1h-1h-1h-1h-1h-1h-1h-1h-1h-1h-1h-1h-1h-1h-1h-1h-1h-1h-1h-1h-1h-1h-1h-1h-1h-1h-1h-1h-1h-1h-1h-1h-1h-1h-1h-1h-1h-1h-1h-1h-1h-1h-1h-1h-1h-1h-1h-1h-1h-1h-1h-1h-1h-1h-1h-1h-1h-1h-1h-1h-1h-1h-1h-1h-1h-1
h-1h-1h-1h-1h-1h-1h-1h-1h-1h-1h-1h-1h-1h-1h-1h-1h-1h-1h-1h-1h-1h-1h-1h-1h-1h-1h-1h-1h-1h-1h-1h-1h-1h-1h-1h-1h-1h-1h-1h-1h-1h-1h-1h-1h-1h-1h-1h-1h-1h-1h-1h-1h-1h-1h-1h-1h-1h-1h-1h-1h-1h-1h-1h-1h-1h-1h-1h-1h-1h-1h-1h-1h-1h-1h-1h-1h-1h-1h-1h-1h-1h-1h-1h-1
h-1h-1h-1h-1h-1h-1h-1h-1h-1h-1h-1h-1h-1h-1h-1h-1h-1h-1h-1h-1h-1h-1h-1h-1h-1h-1h-1h-1h-1h-1h-1h-1h-1h-1h-1h-1h-1h-1h-1h-1h-1h-1h-1h-1h-1h-1h-1h-1h-1h-1h-1h-1h-1h-1h-1h-1h-1h-1h-1h-1h-1h-1h-1h-1h-1h-1h-1h-1h-1h-1h-1h-1h-1h-1h-1h-1h-1h-1h-1h-1h-1h-1h-1h-1
h-1h-1h-1h-1h-1h-1h-1h-1h-1h-1h-1h-1h-1h-1h-1h-1h-1h-1h-1h-1h-1h-1h-1h-1h-1h-1h-1h-1h-1h-1h-1h-1h-1h-1h-1h-1h-1h-1h-1h-1h-1h-1h-1h-1h-1h-1h-1h-1h-1h-1h-1h-1h-1h-1h-1h-1h-1h-1h-1h-1h-1h-1h-1h-1h-1h-1h-1h-1h-1h-1h-1h-1h-1h-1h-1h-1h-1h-1h-1h-1h-1h-1h-1h-1
h-1h-1h-1h-1h-1h-1h-1h-1h-1h-1h-1h-1h-1h-1h-1h-1h-1h-1h-1h-1h-1h-1h-1h-1h-1h-1h-1h-1h-1h-1h-1h-1h-1h-1h-1h-1h-1h-1h-1h-1h-1h-1h-1h-1h-1h-1h-1h-1h-1h-1h-1h-1h-1h-1h-1h-1h-1h-1h-1h-1h-1h-1h-1h-1h-1h-1h-1h-1h-1h-1h-1h-1h-1h-1h-1h-1h-1h-1h-1h-1h-1h-1h-1h-1
h-1h-1h-1h-1h-1h-1h-1h-1h-1h-1h-1h-1h-1h-1h-1h-1h-1h-1h-1h-1h-1h-1h-1h-1h-1h-1h-1h-1h-1h-1h-1h-1h-1h-1h-1h-1h-1h-1h-1h-1h-1h-1h-1h-1h-1q-7 0 -11 1.5t-5.5 5.5t-1.5 10v340q0 17 17 17h226zM683 487h-428v-316h428v316zM769 142q-15 0 -26.5 12t-11.5 26
q0 10 5.5 19t14.5 14.5t18 5.5q15 0 27 -12t12 -26.5t-12 -26.5t-27 -12zM769 170q5 0 7.5 2.5t2.5 7.5q0 10 -10 10t-10 -10q0 -5 2.5 -7.5t7.5 -2.5zM521 336q-8 0 -16 0.5t-16 2t-16 3.5t-15.5 5t-15.5 6.5t-15 8.5q-41 24 -87 1q-7 -4 -14 -3q-2 0 -4 1t-3 3t-1 4l-2 4
q-1 9 8 14q22 14 52 15q39 2 72 -18q41 -25 101 -16q26 4 49 18q6 3 11.5 2t9.5 -6q7 -12 -6 -21q-38 -23 -92 -24zM525 260q-56 1 -98 27q-41 24 -87 0q-7 -3 -13 -3q-9 1 -11 12q0 4 1.5 8t6.5 7q10 6 22.5 10t25.5 5q10 0 20 -0.5t19.5 -2.5t19 -6t17.5 -9q35 -22 86 -18
q37 2 65 20q12 8 19.5 -4t-5.5 -21q-28 -18 -67 -23q-3 0 -6 -0.5t-6 -0.5h-5q-3 0 -4 -1z" />
    <glyph glyph-name="uniE62B" unicode="&#xe62b;" 
d="M867 557v-513l-1 -2l-1 -4q-3 -22 -14 -41t-28.5 -32t-39.5 -18q-2 -1 -5 -1l-6 -2q-3 0 -5 -1h-509l-5 2q-22 3 -41 14t-32 28t-18 39q-1 3 -1.5 5.5t-1.5 6.5t-1 6v513v1q1 3 1 4q5 33 27 58t54 33q3 1 6 1.5t6.5 1.5t5.5 1h509h1q3 -1 4 -1q33 -5 57.5 -27t33.5 -55
q0 -1 4 -17zM239 300v-218q0 -16 7.5 -29t20.5 -20.5t29 -7.5h433q24 0 40 16.5t16 40.5v436q0 25 -16 41t-41 16h-216h-215q-25 0 -41 -16t-17 -41v-218zM430 218v-109h-80v383h2h4h63h82h64q52 0 89.5 -31.5t46.5 -83.5q10 -53 -22 -99.5t-85 -56.5q-7 -1 -15.5 -1.5
t-14 -1t-15.5 -0.5h-112h-4h-3zM431 300h1h3h33h35h31h35q8 0 18 4q17 6 27.5 23t6.5 36q-3 20 -18 33.5t-35 13.5h-133h-3h-1v-110z" />
    <glyph glyph-name="uniE62C" unicode="&#xe62c;" 
d="M506 44q-10 0 -20.5 -1t-23 -3.5t-18 -3.5t-21.5 -4q-52 -11 -77 -11q-41 0 -62.5 31.5t-8.5 69.5q15 41 52 75q2 1 10 8t10.5 9.5t9.5 8.5t10.5 9.5t8 9t8.5 11.5q6 7 35 48q8 10 12.5 16t11.5 14t15 14q41 34 90 18q12 -4 21.5 -12t17.5 -19q2 -3 4.5 -7t4.5 -7.5
t4.5 -7.5t4.5 -7.5t4.5 -7.5t4.5 -7q11 -19 23.5 -36.5t26.5 -33.5t30 -31q18 -16 29.5 -34t16.5 -39q5 -26 -5 -52q-8 -20 -22.5 -30.5t-36.5 -11.5h-10q-4 0 -9.5 0.5t-9.5 1t-9.5 1.5t-9 1.5t-9.5 1.5t-9 2q-20 3 -41 6.5t-50 8.5q-1 0 -13 1zM706 517q0 -10 -1.5 -20.5
t-4 -20.5t-6.5 -19t-10 -18t-13 -18q-13 -15 -30 -24q-11 -5 -21.5 -6t-21 1t-19.5 7.5t-17 14.5q-24 28 -26 70q-1 31 7.5 58t28.5 50q5 5 9.5 9t9.5 7.5t10.5 6t11.5 4t13 2.5q14 1 25.5 -3.5t21 -12.5t16.5 -20q17 -27 17 -68zM488 487q0 -9 -1 -18t-3 -17.5t-5.5 -16.5
t-7.5 -15q-18 -28 -46.5 -33.5t-55.5 13.5q-37 28 -48 81q-10 46 7 84q3 6 6.5 12t8 11t9 9t10.5 7.5t13 5.5q13 4 26 2t23.5 -7.5t20.5 -14.5q35 -33 42 -88q0 -2 0.5 -5t0.5 -6v-4zM830 346q-4 -61 -49 -97q-26 -22 -54 -15q-18 3 -28 15.5t-16 30.5q-10 35 5 75t45 60
q24 15 46 11q7 -1 13.5 -3.5t11.5 -7t9 -10t8 -12.5q8 -18 9 -47zM344 308q0 -13 -2.5 -24t-7.5 -21q-11 -21 -31 -28t-41 2q-33 14 -52 51q-26 52 -9 98q3 9 7.5 15.5t10.5 11.5t13.5 8t16.5 4q23 2 45 -15q21 -16 33 -38t16 -50q1 -3 1 -10v-3v-1z" />
    <glyph glyph-name="uniE62D" unicode="&#xe62d;" 
d="M505 -6q-33 0 -100 -14q-63 -14 -93 -13q-50 0 -75.5 37t-9.5 83q9 26 24.5 48.5t38.5 41.5q1 2 11 10.5t13 11t11 10t12.5 12t10 11t10.5 12.5q7 8 42 58q9 12 14.5 19t14.5 17t18 17q49 40 108 21q28 -8 48 -37q5 -8 32 -53q41 -69 97 -120q21 -20 35 -41t20 -47
q7 -32 -5 -62q-10 -25 -28 -37.5t-45 -13.5q-21 0 -79 10q-38 6 -110 18q-1 0 -15 1zM747 561q-1 -33 -11.5 -62t-31.5 -53q-16 -19 -37 -29q-25 -12 -50.5 -6.5t-44.5 26.5q-28 34 -31 84q-3 76 44 129q13 15 29 24t35 11q48 3 77 -43q11 -17 15.5 -37t5.5 -44zM483 525
q0 -24 -5 -44t-16 -37q-14 -22 -34.5 -33t-43.5 -8.5t-44 18.5q-45 33 -58 96q-12 55 9 101q19 43 56 53q45 13 85 -23q42 -39 50 -105q0 -1 1 -18zM895 356q-4 -73 -58 -117q-15 -12 -31.5 -17t-34.5 -1q-39 9 -52 56q-12 42 6 89.5t54 71.5q28 18 55 14q34 -5 50 -40
q11 -21 11 -56zM310 310q-1 -31 -12 -53q-14 -25 -37.5 -34t-50.5 2q-20 9 -35.5 24.5t-26.5 37.5q-32 62 -11 117q16 43 58 46q14 2 28 -3t26 -14q50 -38 59 -106q1 -2 1 -4.5t1 -7.5v-3v-2z" />
    <glyph glyph-name="uniE62E" unicode="&#xe62e;" 
d="M962 241v-39h-58q-8 0 -9 7q-1 13 -14 9q0 -43 -19.5 -68.5t-54.5 -26.5q-16 -1 -30.5 3.5t-26.5 15.5q-31 28 -26 76q-19 3 -26 -8q-3 -3 -9 -3h-318q-8 0 -11 6q-2 3 -4 4.5t-5 2t-6 -0.5q9 -60 -40 -87q-43 -23 -84 5q-42 30 -31 83q-2 -1 -9 -0.5t-11 -0.5t-8 -5
q-2 -2 -8 -2h-84q-2 0 -5 1h-3v38q6 1 10 1v10v30v30v29q0 16 6 21.5t22 5.5h3h67h68h68h68h64q2 7 7 23.5t9 28t7 23.5q3 9 7.5 15.5t12.5 9.5h144q16 -3 29 -23q9 -14 16.5 -25.5t16 -24.5t16.5 -24q4 -6 9 -6q6 -1 42 -4q133 -11 148 -12q21 -2 33.5 -17t10.5 -34
q-1 -3 -1 -17q-1 -7 -1.5 -15.5t-1 -19.5t-0.5 -16h6q4 0 7.5 0.5t6.5 0.5zM500 446q-1 -5 -2.5 -16.5t-2.5 -20.5t-2 -17q-3 -22 17 -22h80q3 6 5.5 12.5t3.5 11.5t1.5 13.5t0.5 12.5t-0.5 13.5t-0.5 12.5h-100zM608 446v-45q0 -7 5 -25q0 -2 1.5 -4t2.5 -2h11h10h12h11
q-3 8 -3 9q-10 20 -26 54q-5 11 -8 12.5t-16 0.5zM693 376q-33 53 -50 80q-12 -5 -5 -18q2 -3 3.5 -6.5t3.5 -7.5t3.5 -7.5t3.5 -7.5l4 -7l3 -7l4 -8q7 -14 10.5 -15.5t19.5 4.5zM313 200q0 20 -13.5 33t-32.5 13t-32.5 -13.5t-13.5 -31.5q0 -8 2.5 -15t6.5 -12.5t9.5 -10
t12.5 -6.5t15 -2q19 -1 32.5 12.5t13.5 32.5zM803 154q18 0 31.5 13.5t14.5 32.5q0 9 -4 17.5t-10 15t-14.5 10t-17.5 3.5q-19 0 -32.5 -13t-13.5 -33q0 -12 6 -22.5t16.5 -16.5t23.5 -7zM802 174q11 -1 19 6.5t8 18.5q1 4 0 7.5t-2.5 6.5t-4 6t-5.5 4.5t-6.5 2.5t-7.5 1
q-11 0 -19 -7.5t-9 -18.5q0 -11 8 -19t19 -8zM267 174q7 0 13.5 3.5t10 9.5t3.5 13q0 11 -8 19t-19 8t-19 -7.5t-8 -19.5q0 -11 8 -18.5t19 -7.5z" />
    <glyph glyph-name="uniE62F" unicode="&#xe62f;" 
d="M82 296q7 45 7 47q39 200 220 290q19 10 39.5 17t41.5 12t42 7.5t43 2.5h8v-401h402q-1 -5 -1.5 -15.5t-1 -18.5t-1.5 -15q-29 -187 -185 -290q-41 -27 -86 -42t-95 -19h-7q-2 -1 -3 -1h-38q-46 5 -48 6q-58 9 -108 33t-93 62q-104 93 -129 229l-2 12q-1 6 -1.5 11
t-1.5 11.5t-2 11.5v50zM426 609q-60 -9 -114 -41t-94.5 -79.5t-61.5 -112.5t-15 -135q7 -85 52.5 -156t122.5 -114.5t169 -42.5q69 0 129.5 25t102.5 66t69 91.5t35 103.5h-395v197v198zM942 330q-23 0 -70 -0.5t-84 -0.5h-69q-38 0 -162 -1h-16v401h25q29 -4 30 -4
q81 -13 146 -51.5t116 -102.5q69 -89 80 -202q1 -2 4 -34v-5z" />
    <glyph glyph-name="uniE630" unicode="&#xe630;" 
d="M683 231h-44v9h-167v-55h-45v7v329q0 16 -3 29q-2 9 -5.5 16t-9 12t-12.5 8t-16 5l-8 2v62q32 -1 57 -23q16 -13 25.5 -31.5t12.5 -41.5q1 -3 5 -49h167q7 76 -56 83v63q28 -6 30 -7q48 -18 62 -75q4 -12 5.5 -24t1.5 -24v-289v-3v-3zM639 343h-167v-39h167v39zM472 408
h167v39h-167v-39zM843 169q9 -45 10 -48q1 -8 0 -10t-9 -6q-38 -18 -75 -1q-60 27 -63 28q-50 24 -94 3q-6 -3 -13.5 -7t-13 -7t-13.5 -7.5t-13 -7.5q-50 -27 -120 -13q-16 3 -49 28q-16 12 -33.5 17.5t-37.5 3.5l-36 -5q-22 -3 -55 -26q-2 -2 -39 -23q-4 7 -9.5 15
t-11 16.5t-9.5 15.5q24 19 25 20q9 6 25.5 15.5t22.5 13.5q22 13 69 20q14 3 29.5 3t29.5 -4q12 -4 32 -15q14 -7 36 -22q15 -10 48 -13q10 -2 20.5 -0.5t19 3.5t18.5 5.5t18 8t17 9.5q35 22 56 25q54 9 101 -14q1 -1 61 -28q19 -8 39 0l4 2l4 2q2 1 4.5 2t4.5 1zM843 35
q6 -32 8 -41q0 -1 1 -2q2 -7 1 -11.5t-3 -6t-11 -5.5q-34 -15 -65 -1q-39 17 -68 30q-52 24 -97 2q-20 -11 -48 -27q-25 -15 -56.5 -18t-59.5 2q-10 2 -20.5 7.5t-15 8.5t-17.5 13q-17 12 -32.5 18t-33.5 4q-6 -1 -44 -5q-14 -2 -26.5 -8.5t-27.5 -17.5l-9 -6
q-4 -3 -8.5 -5.5t-10.5 -6t-9 -4.5q-2 3 -6.5 10t-7 11t-6 10t-6.5 11l1 7q15 13 23 18q18 12 43 26q62 34 131 21q10 -2 28 -12q15 -9 41 -25q14 -10 44 -13q45 -5 95 25q36 22 57 26q54 10 102 -15q5 -2 10.5 -5t11 -5.5t11 -4.5t11.5 -5t11 -5q25 -13 55 3q0 1 2 1z" />
    <glyph glyph-name="uniE631" unicode="&#xe631;" 
d="M947 382q-1 -9 -5 -16t-12 -11q-18 -9 -34 2q-8 5 -53 36q-240 166 -322 222q-3 2 -5 3t-3.5 0.5t-3.5 -1t-5 -2.5q-97 -67 -189 -130t-180 -124q-11 -8 -24 -9q-21 -3 -30 19q-4 10 -1.5 20t10.5 16q2 2 18 13q188 129 380 262q6 4 11 6.5t9.5 3t9 0t9 -3t10.5 -6.5
q34 -23 77.5 -53.5t80.5 -55.5t77 -52.5t80.5 -55.5t77.5 -54q8 -5 12.5 -12t4.5 -17zM230 686h87v-41v-48q-1 -6 -4 -9q-20 -14 -79 -54l-4 -2v154zM953 -95v143h-31q-3 0 -3 -9v-90v-43h-38v142h-34v-10v-108q0 -13 -6 -18.5t-19 -5.5h-619q-9 0 -14 2t-7.5 7.5t-2.5 14.5
v34v39v34v11h-34v-142h-39v142h-34v-143h-40v219q1 1 2.5 3t2.5 3.5t2 3.5q8 8 20 3.5t12 -17.5v-33h35v30q0 21 19 21q4 0 8 -1t6.5 -4t3.5 -7t1.5 -9t0.5 -14v-14l1 -2h8h10h9q6 0 6 8v9v130v117q0 2 1.5 4t5 5t8 5.5t9.5 5.5l10 6q5 3 9 5t7.5 4t5.5 3l2 1v-425h551v425
q46 -17 57 -26q2 -1 2 -9v-257v-11h33v10v12v9q1 10 6 15t13 5q17 -1 19 -17q1 -13 1 -26q-1 -5 1 -7t7 -1h7h10h8v26q0 11 3.5 17t10.5 8q15 4 26 -14v-219h-39zM425 190h27q7 0 8 -6q6 -24 14.5 -31t32.5 -8q12 -1 40 5q4 0 7.5 2t6 5t4 6.5t2.5 7.5q2 20 -14 27
q-13 6 -41 14q-4 2 -7 2q-3 1 -27.5 8t-37.5 12q-14 5 -24.5 13.5t-17 21t-7.5 27.5q-2 27 9 47t35 33q22 13 50 14q6 0 8.5 2.5t2.5 7.5q-1 14 0.5 15t15.5 2h3h1q14 0 16.5 -2.5t2.5 -15.5q0 -8 11 -8q20 -1 37.5 -9t30.5 -23q15 -17 19 -45q1 -9 -9 -9h-7h-7h-8h-8h-6h-8
h-7q-5 0 -7 2t-3 6q-1 6 -3 10.5t-5.5 8t-8 5.5t-10.5 4q-9 1 -18 1.5t-18 0t-18 -2.5q-19 -5 -20 -22q0 -7 1.5 -12t5.5 -8.5t10 -5.5q13 -5 27 -8l30 -8q43 -11 67 -25q42 -27 35 -82q-8 -60 -81 -73h-3q-2 -1 -3 -1t-3 -0.5t-3 -0.5q-10 -1 -11.5 -2.5t-1.5 -11.5
q0 -16 -3 -18.5t-18 -2.5t-16 1.5t-1 15.5q-1 12 -3 14.5t-14 3.5q-48 7 -73 40q-16 20 -17 49q0 8 8 7h30z" />
    <glyph glyph-name="uniE632" unicode="&#xe632;" 
d="M286 277h452v-12v-97v-118v-98q0 -40 -40 -40h-46h-46h-48h-46h-48h-45h-47h-47q-39 0 -39 39v317v9zM354 163v-11v-13q0 -10 5.5 -15.5t15.5 -5.5q23 -1 24 20q1 25 0 51q0 20 -24 20q-6 0 -10.5 -2.5t-7.5 -7.5t-3 -11v-25zM738 323h-452v11v96v123v96q0 13 4.5 22
t13.5 13.5t21 4.5h375q11 0 19.5 -4.5t13.5 -13t5 -19.5v-322v-7zM488 464v-33q0 -13 6.5 -20.5t17.5 -7.5q8 0 13 3.5t8 9.5t3 14v8v8v9v9q4 -2 10 -6t10.5 -6.5t9.5 -4.5q6 -4 13 -4.5t12.5 2.5t8.5 9q6 9 3 19t-14 16q-2 1 -29 17q28 16 31 18q14 8 12 24q0 7 -3.5 12
t-8.5 7.5t-11.5 2t-12.5 -3.5q-4 -2 -9 -5t-11.5 -7t-10.5 -6v12v14v11q0 15 -14 22q-4 2 -9 2t-9.5 -1.5t-8 -5t-5.5 -8t-2 -9.5v-37q-27 16 -29 17q-11 6 -20.5 4t-14.5 -12q-12 -20 11 -34q2 -1 29 -17q-3 -2 -9 -5q-12 -7 -18 -11q-12 -7 -15.5 -16.5t2.5 -19.5
q12 -20 37 -6q2 1 27 16z" />
    <glyph glyph-name="uniE633" unicode="&#xe633;" 
d="M845 654q-89 20 -161 -28q-29 -19 -29 -48q0 -8 -2.5 -14t-9.5 -11q-2 1 -5.5 2.5t-6 3t-4.5 2.5q-5 4 -11 9t-8.5 7.5t-10.5 9.5t-9 8q-10 9 -9 20q10 -3 17 -5q14 3 17 6.5t4 16.5q-4 6 -7 8.5t-7.5 3.5t-9.5 0t-14 -3q-2 3 -5 8q2 0 4.5 1.5t4 2t2.5 2.5q3 2 5 4
t4.5 5t3.5 5q4 6 2 12.5t-7 10.5q-11 7 -21 -2q-2 -2 -3.5 -4t-3.5 -5t-3 -4t-5 -6q1 2 3.5 8.5t3 9.5t-0.5 8.5t-5 9.5q-8 9 -22 1q-6 -5 -7.5 -10t0 -10t2.5 -10t-1 -10q-4 0 -6.5 0.5t-4 2.5t-2 3t-1.5 5q-2 5 -4.5 8.5t-6.5 6t-9 3.5q-12 3 -20 -5t-4 -19q3 -6 14 -15
q1 -1 17 -8q0 -2 -1 -6.5t-1 -6.5q-16 -3 -22.5 -8t-11.5 -16q0 -9 3.5 -14.5t10.5 -7.5q15 -5 31 15q15 -8 15 -9q8 -26 8 -27q1 -4 5.5 -7t7.5 -7t2 -10q-4 -1 -13.5 -3t-17 -3t-14.5 -3q-79 -17 -101 -80q-3 -7 -5.5 -15.5t-4.5 -15.5t-4.5 -16t-4.5 -15q-5 -17 -11 -21
q-5 9 -6 9q-24 44 -56 66q-30 21 -54 17q-11 -5 -18 -23t-8 -21q-16 20 -28 14t-5 -31q-4 2 -11.5 5t-10.5 4q-13 -11 -13 -21q0 -4 1.5 -7t4.5 -5t6 -3t6.5 -2.5t6.5 -2.5q-8 -5 -13 -2q-5 2 -9 2.5t-8 -0.5t-8 -5q-9 -9 -1 -25q16 -5 18 -6q3 2 10 5t10 5q5 -9 -5 -16
q-24 -17 -4 -40q9 -3 15 -1.5t10 6t6 14.5q1 2 2 5t3 8t3 8q9 -13 9 -14l3 -6l2 -8q7 -12 21 -12q14 1 20 15l3 15q-2 2 -6.5 6t-9 7.5t-7.5 6.5q4 5 11.5 14.5t10.5 12.5q3 -5 6.5 -10.5t7 -11.5t6.5 -11t7 -12t6.5 -11t7 -11.5t7.5 -11.5q-21 -24 -22 -25q-62 -58 -90 -81
q-36 -30 -53 -81q-19 -54 -6 -101q17 -62 76 -97q53 -31 122 4q7 4 10 9t2 11q-6 13 -18 11q-24 -10 -32 -12q-50 -11 -83 25q-20 20 -33 63q-6 24 -1.5 43.5t19.5 39.5q22 31 79 67q8 5 21.5 13.5t23 14.5t21.5 14t22.5 16t20.5 16q1 1 2 1.5t2.5 1.5t2.5 1q40 -10 86 5
q8 -8 8.5 -18.5t-1.5 -20.5q-14 10 -15 11q-15 7 -23 -5q-8 -11 2 -22q3 -4 7 -5t9 0q2 0 7 -2q3 -1 5 -1q-5 -4 -13.5 -7t-13.5 -7.5t-5 -13.5q4 -10 11.5 -13t17.5 0q-3 -11 -2 -17.5t6 -9t16 -3.5q4 2 7 6t4 7.5t3 10t3 9.5q12 -24 13 -25q7 -11 22 -7q14 9 11 28
q-5 5 -18 17q0 5 1 5l3 4q27 3 33 10t-4 26q-3 3 -6.5 4t-7.5 0.5t-6 -1t-7 -3t-6 -3.5q-10 11 -11.5 15.5t2.5 16.5l2 6q1 3 1.5 6t1.5 6t2 5.5t1 5.5q3 13 -3 24.5t-18 17.5q-10 5 -26 8q-3 1 -38 7q3 23 25 26q4 0 40 3q10 0 19 2.5t17 6t15 10t13 14.5q1 1 3 2q1 1 2 1
q3 -10 4.5 -23t1 -23.5t-0.5 -23.5q10 -12 33 -14.5t28 -4.5q1 -1 3.5 -4.5t3.5 -5.5q-3 -8 -3 -17.5t11 -14.5l18 5q0 2 1 6.5t2 7.5t1 7q6 -8 9.5 -11.5t7 -4.5t7 0.5t10.5 5.5q0 2 0.5 4.5t1.5 6t1 4.5q2 1 6.5 3.5t6.5 3.5q2 6 2.5 11t-2 9t-7.5 8q-16 -1 -17 -1
q-1 1 -1 2v2q2 2 11 8q3 2 5.5 5t3.5 6t1 6t-1 6q-5 13 -23 8l-9 -4q-2 -1 -2.5 -5t-2 -7t-5.5 -3q-1 0 -2 1q-1 0 -1 1q-2 6 -3 13q-1 10 -4.5 13.5t-14.5 3.5q-13 -4 -14 -15t3 -21q-6 5 -8 7t-3 6t0 9t3 17.5t2 18.5q3 29 25 72q9 5 22 -3q11 -7 22 -8t22 4q16 7 29 16
q40 29 70 80q4 7 7.5 13.5t6.5 14t5 14.5q5 19 -4 34t-28 19zM485 503q2 0 4.5 -0.5t4 -2t2 -3.5t0.5 -4.5t-0.5 -4.5t-2 -3.5t-4 -2.5t-4.5 -1q-4 0 -7.5 3.5t-3.5 7.5q0 11 11 11zM468 438q-4 0 -7 3t-3 7q0 10 10 10q4 0 7 -3t3 -7q0 -2 -0.5 -4t-2 -3.5t-3.5 -2t-4 -0.5
zM496 422q-3 0 -5.5 1.5t-4 4t-1.5 5.5t1.5 5.5t4 4t5.5 1.5t5 -1t3.5 -2.5t2 -3.5t0.5 -4q0 -5 -3 -8t-8 -3zM513 454q-6 0 -10 4t-4 10q0 4 2 7.5t5 5t7 1.5q6 0 10 -4t4 -10t-4 -10t-10 -4zM530 491q-5 0 -9 4t-4 9q0 4 2 7t5 4.5t6 1.5q6 0 10 -4t4 -9t-4 -9t-10 -4z
M549 426q-8 0 -8 7q0 4 2.5 6t5.5 2q8 0 8 -8q0 -3 -2.5 -5t-5.5 -2zM568 462q-10 0 -10 10q0 2 1.5 4.5t4 4t4.5 1.5q5 0 8 -3t3 -7q0 -2 -1 -4t-2.5 -3.5t-3 -2t-4.5 -0.5zM604 474q-3 0 -5.5 2.5t-2.5 5.5q0 9 8.5 9t8.5 -8.5t-9 -8.5z" />
    <glyph glyph-name="uniE634" unicode="&#xe634;" 
d="M204 404l204 -206l415 413l103 -104l-516 -518l-312 311z" />
    <glyph glyph-name="uniE635" unicode="&#xe635;" 
d="M518 -41q-15 5 -23 14t-9 24v21v19h-248v251h-65q10 24 16 37.5t15 34t16 37.5q34 -60 62 -109h-22v-229h226v8v98q0 19 11 30.5t31 11.5h55q-21 22 -73 78q2 2 7.5 7t8.5 8q44 -48 70 -76q9 10 19 23t21 27.5t18 24.5q2 -1 3.5 -2.5t3.5 -3t3.5 -2.5t3 -2.5t3.5 -2.5
q-35 -47 -60 -79h147v360h-183q10 -37 1 -67q-18 5 -19 5q13 86 -68 118q2 9 2 10t3 10q14 -4 27 -11t24 -18q2 -3 5 -6.5t5.5 -6.5t5.5 -7q3 -5 10 -5h200h8v-382h27q17 1 29 -6.5t17 -23.5v-188q-4 -12 -12 -19.5t-20 -10.5h-302zM733 150h-187v-134h187v134zM758 135
q0 -5 1.5 -10.5t5 -9.5t7.5 -7.5t9 -5t11 -1.5q14 -1 24.5 9t10.5 25q0 14 -10 24.5t-24 10.5q-6 0 -11 -1.5t-9.5 -5t-7.5 -7.5t-5 -9.5t-2 -11.5zM818 39h-49v-21h49v21zM769 82v-21h7h8h8h8h7h7q4 0 4.5 3t0.5 18h-50zM412 351q-15 -7 -31.5 -10.5t-33 -2.5t-33 6t-31 14
t-27.5 22.5t-21 30.5q-26 50 -8 104t67 77q14 -30 35 -72q47 9 163 30q-1 -1 -2 -3l-3 -3q-4 -5 -20 -22.5t-23 -25.5t-19.5 -22t-22.5 -25.5t-21 -22.5q-4 -5 -1 -10q5 -10 32 -65zM435 518q-24 -5 -47 -9t-49 -9q18 -36 28 -58q10 12 32.5 37t35.5 39zM461 583l5 20
q32 -6 51 -38t9 -65h-1h-1q-15 5 -16 6t-1.5 3.5t0 6t0.5 5.5q0 20 -11 36.5t-30 23.5q-1 0 -3 1zM793 148q5 0 9 -4t3 -9q0 -2 -0.5 -4t-2.5 -3l-2 -4q-2 -1 -4 -1.5t-4 -0.5q-5 0 -9 4t-3.5 9.5t4 9.5t9.5 3z" />
    <glyph glyph-name="uniE636" unicode="&#xe636;" 
d="M675 36q-97 -67 -215 -67q-101 0 -187.5 50t-136.5 136t-50 187q0 76 30 145.5t80 119.5t119 79.5t145 29.5q44 0 86 -10t78.5 -28t69 -44t58 -58t44 -69t28.5 -79t10 -86q0 -103 -53 -191l157 -156l-111 -111zM461 100q100 0 170.5 70.5t70.5 170.5q0 65 -32 120.5
t-87.5 88t-121.5 32.5q-99 0 -169.5 -70.5t-70.5 -170.5q0 -49 19 -93.5t51 -77t76.5 -51.5t93.5 -19z" />
    <glyph glyph-name="uniE637" unicode="&#xe637;" 
d="M511 721q-13 -6 -33 -15t-65.5 -29t-70.5 -32l-170 -75v-278q8 -55 25.5 -104.5t38.5 -86t47.5 -69t51 -54t52.5 -40t47.5 -28.5t39.5 -18t26.5 -10t10.5 -2q6 1 16 3.5t40 15.5t58.5 30.5t65 51t66 74t55.5 103t39 134.5v278zM511 -37v339h-261v219l261 118v-337h261
q-42 -215 -187 -306q-42 -26 -74 -33z" />
    <glyph glyph-name="uniE638" unicode="&#xe638;" 
d="M499 681q93 0 171.5 -46t123.5 -125t45 -172q0 -96 -45.5 -176t-124.5 -125.5t-172 -44.5q-94 1 -171 46.5t-121 122t-46 166.5q-2 74 25 140.5t74 113t110 74t131 26.5zM506 29q82 2 151 44.5t108.5 116t36.5 159.5q-2 48 -18.5 93.5t-46 83t-68 65t-87.5 41.5t-101 11
q-57 -3 -110 -28.5t-92.5 -66.5t-62 -100.5t-20.5 -125.5q5 -122 94.5 -208.5t215.5 -84.5zM646 336q0 -17 -4 -34t-11.5 -32t-18 -28t-24 -23t-28 -17.5t-31.5 -11t-34 -3.5q-59 2 -102 47t-41 106q1 60 45.5 103.5t105.5 41.5q38 -1 71.5 -21.5t52.5 -54.5t19 -73z
M581 433q-24 23 -57.5 29.5t-67.5 -5t-56 -39.5q-12 -16 -19 -35t-8 -37t2 -35.5t10 -31.5t17 -22q23 22 27 27q3 3 3 7q-5 24 14 52q2 2 5 6t4.5 6.5t4.5 7t4 7t2.5 7.5t1 8.5t-1.5 8.5q14 -13 13 -42q4 4 6.5 8.5t4.5 9.5t2 11q1 11 -1.5 21.5t-8.5 19t-16 16.5
q16 -2 29 -10t21.5 -17t18.5 -23q38 38 46 45zM418 238q41 -34 93 -29.5t85 43.5q29 34 30 83t-28 80q-41 -39 -46 -44q-3 -2 -4 -4.5t-1.5 -5.5t-0.5 -7q3 -10 2 -30q0 -1 -5 -17q18 8 20 44q9 -13 11 -28.5t-3 -31.5t-17 -30q-17 -19 -40 -22q-10 -2 -20 -1t-19 4t-17 9
t-15 15q-11 -12 -25 -28zM507 328q-9 -12 -9 -13q-1 -2 -2 -4.5t-2.5 -4.5t-3 -3.5t-3.5 -3t-4 -3.5q-8 -4 -10 -10q-4 -8 0 -15.5t13 -11.5q12 -3 21.5 1t11.5 15q6 24 -12 53zM433 77q-13 -2 -30 5q-36 12 -75 48q-48 44 -73 93q-10 21 -12 39v7h11h14h10h22q9 0 13 -9
q13 -31 31 -53q10 -13 21.5 -23t24.5 -18.5t28 -14.5q10 -5 12.5 -8.5t2.5 -14.5v-51zM566 595q4 1 8.5 1t9 -1t8 -2t8.5 -3q37 -15 77 -54q19 -18 34.5 -37.5t27.5 -41.5q13 -24 16 -47l1 -6h-18h-14h-26q-3 0 -5 1t-4 2.5t-3 4.5q-1 2 -3.5 6.5t-3.5 7.5t-3 6.5t-4 6.5
q-25 44 -68 70q-5 3 -30 16q-8 4 -8 12v58zM431 595v-51v-1q1 -5 -0.5 -9t-4 -6t-7.5 -4q-32 -18 -43 -26q-33 -25 -54 -65q-1 -2 -2.5 -4.5t-3 -6t-1.5 -5.5q-3 -6 -7 -9t-11 -4h-54q0 3 0.5 7t1 7t0.5 6q6 24 26 54q25 36 63 69q15 12 30 22t31 17q24 11 36 9zM570 77v15
v16v14v15q0 5 11 11q4 3 12.5 7.5t15.5 8.5t12 8q35 25 57 66q4 7 8 17q6 14 22 14q43 -1 44 -1q6 0 6 -6q-2 -22 -15 -47q-31 -53 -87 -98q-39 -30 -73 -38q-1 0 -13 -2z" />
    <glyph glyph-name="uniE639" unicode="&#xe639;" 
d="M260 192q13 32 8.5 64t-33.5 53q-20 14 -46.5 14t-43.5 -13q-12 -10 -20.5 -27.5t-10.5 -36.5t2 -37q-8 -3 -15 5q-34 39 -36 99q-2 42 -2 45q-1 11 9 13q4 0 11 2q12 3 18 3q13 0 26 3.5t28.5 8.5t24.5 7q180 46 320 46q70 1 125 -21q46 -19 80 -53q8 -8 19 -7
q59 7 110 -8q57 -16 115 -67q10 -9 12 -18t-4 -24q-3 -6 -29 -48q-1 -1 -2.5 -1.5t-2.5 -0.5h-77q0 5 1.5 16t2.5 19t1 16q1 18 -7.5 35.5t-24 28.5t-33.5 12q-20 0 -36 -3q-50 -10 -55 -68q-2 -18 0.5 -31.5t12.5 -25.5h-448zM666 343v3l1 1q-2 3 -6.5 8.5t-8 10t-7.5 7.5
q-31 29 -82 41q-56 14 -136 3q-16 -2 -26 -15q-25 -33 -27 -35q-15 -18 -19 -49q-1 -6 0 -12t4 -12q3 -7 7.5 -14t9.5 -13t10.5 -11t11.5 -10q23 -18 45 -18h105h104q8 0 8 9h-4h-4h-4h-48h-50h-46h-49q-17 0 -27 7q-33 20 -60 56q-7 10 -3 22h1l4 1h15h20q5 0 8 3t4 8
q0 7 -10 7h-2h-11h-13h-11q4 16 7.5 19t17.5 2q5 -1 25 -3.5t31 -3.5q122 -11 164 -14h17q5 0 16.5 1t17.5 1zM389 407q-51 -8 -96 -34q25 -4 55 -7q5 0 8 3q6 7 33 38zM920 294l1 1l1 2q-44 29 -47 32q-10 6 -21 0q-2 -1 -6 -5q-2 -1 -3 -2q8 -8 9 -8q17 -6 59 -20h7z
M76 360q1 -2 2 -5t2 -4.5t2 -3.5l2 -4q3 -5 6 -3q5 2 27 15q0 2 -1 5h-40zM262 237q0 -32 -20.5 -54t-50.5 -22q-14 0 -27.5 6t-23 16t-15 24t-5.5 29q0 32 20.5 54.5t50.5 22.5q30 -1 50.5 -22.5t20.5 -53.5zM154 227q2 -5 4 -9l4 -6q2 -4 5 -6.5t6.5 -4t7.5 -3.5
q1 4 3 9.5t3 9.5l2 8q-5 8 -10.5 8.5t-13 -3t-11.5 -3.5zM189 249q-1 5 -4 14t-4 13q-11 -4 -17 -11t-9 -17q13 -5 17.5 -6t7.5 0t9 7zM201 276q-1 -2 -1.5 -5t-1 -5.5t-1.5 -4.5t-1 -5l-2 -4q0 -3 1.5 -6t4 -4.5t5 -1t22.5 6.5q-6 21 -26 29zM193 225q1 -3 2 -6.5t2 -6.5
t2 -6.5t2 -7.5q20 7 26 29q-4 1 -12.5 4t-12.5 4q-2 -2 -4.5 -5t-4.5 -5zM191 229q5 7 5 8q0 5 -5 5q-1 0 -3 -1.5t-2 -3.5q0 -1 0.5 -2t2 -2.5t2.5 -3.5zM774 312q30 0 50.5 -22t20.5 -53q0 -32 -21 -54t-51 -22q-29 0 -50 22.5t-21 53.5q0 21 10 38t26 27t36 10zM738 227
q1 -5 3 -9t4.5 -7t5.5 -5.5t6.5 -4t7.5 -2.5q0 3 1.5 7t2.5 7.5t1.5 7t-1.5 7t-7 6.5q-4 -1 -12 -3.5t-12 -3.5zM737 247q3 -1 8 -2.5t8.5 -2.5t6.5 -1q2 -1 5 0.5t5 4t1 4.5q0 3 -7 26q-4 -2 -7.5 -4t-6.5 -4.5t-5.5 -5.5t-4 -6.5t-3.5 -8.5zM783 198q7 2 12.5 6t9 9.5
t5.5 12.5q-2 1 -5 2t-5.5 2t-5 1.5t-5 1.5t-4.5 2q-7 -5 -7.5 -11t2.5 -14t3 -12zM809 247q-4 23 -26 27q0 -2 -1.5 -7t-2.5 -8.5t-1 -6.5q-1 -5 2.5 -9t7.5 -3q3 1 6.5 2t8 2.5t6.5 2.5zM773 229l5 7q0 2 -2 4q-1 2 -2 2l-5 -5q0 -1 0.5 -2t2 -3t1.5 -3z" />
    <glyph glyph-name="uniE63A" unicode="&#xe63a;" 
d="M339 181q7 26 2 49t-22 42q-26 28 -67 28q-37 1 -66.5 -30.5t-19.5 -82.5h-3h-6q-6 1 -13.5 2t-13 2t-12.5 2t-13 1q-17 1 -26 11t-14 26q-9 33 8 55q1 2 1.5 4.5t0.5 4.5v19v19q-1 33 10.5 61t35.5 53l2 9l-1 1l-1 1q15 4 15 5q11 0 29.5 2t30.5 3.5t28.5 2.5t30.5 1
q91 2 223 0h8q5 0 9.5 -0.5t9 -0.5t8.5 -0.5t9 -0.5l8 -2h10q4 -1 8 -1t9 -0.5t9 -1.5q1 0 5.5 -1t6.5 0t3 5q51 -31 55 -33q42 -27 54 -36q12 -10 26.5 -16.5t28.5 -9.5t31 -5q28 -3 58.5 -7t67.5 -9q12 -2 22.5 -8t18.5 -15t12.5 -21t5.5 -25q1 -14 -0.5 -28.5t-4.5 -35.5
q-1 -9 -7 -15t-17 -13q-7 -5 -15.5 -7.5t-14.5 -3t-16 -0.5h-4q21 70 -35 109q-23 15 -50 14.5t-49 -15.5q-49 -33 -34 -108h-128h-117h-130zM112 374h24h24h23h24h23h23q2 0 4.5 1.5t3.5 3.5q12 16 22.5 31t20.5 29q4 6 3 12q0 1 -4 2t-6 1q-57 -3 -130 -7q-8 -1 -10 -3
q-32 -28 -45 -70zM631 368v42q-53 31 -57 34q-24 11 -71 8q-2 -1 -5 -3.5t-3 -4.5q-1 -9 -1 -20v-18v-20v-18h137zM456 451h-92q-13 0 -19 -13q-3 -7 -8 -19t-7 -18q-6 -13 0.5 -21t19.5 -8q14 -1 101 -1q1 0 5 1v79zM254 127q-36 0 -61 24.5t-24.5 59.5t25.5 60t60 24.5
t59.5 -25t24.5 -58.5q0 -18 -6.5 -33.5t-18 -27t-27 -18t-32.5 -6.5zM883 215q0 -35 -24.5 -59.5t-60 -24.5t-60.5 24.5t-25 59.5t25 60t60 25t60 -25t25 -60zM264 209q-2 0 -5 -1.5t-4.5 -2.5t-2.5 0q-1 0 -2 1t-2 3t-2 3q8 6 9 6zM243 262v-27q-2 2 -4.5 5t-4 5t-4.5 5
t-4 5h1l1 1h1l1 1h1h1l1 1l2 1h1h1l1 1h1l1 1h1h1zM202 221q1 3 2 7l4 6q1 4 2 7q12 -13 19 -20h-27zM244 186v-26l-6 2l-8 4q-3 1 -5 2q4 3 10 9zM263 160v29l16 -22q-1 -1 -6 -3q-6 -3 -10 -4zM305 221h-28q3 2 7 5.5t7 6.5t6 5q1 -1 3.5 -7t4.5 -10zM297 183l-3 3l-2 2
q-2 2 -3 3.5t-2.5 2.5t-2.5 2.5t-2.5 2.5t-2.5 3h26q-1 -2 -1.5 -4t-1.5 -3.5t-2 -2.5v-4l-2 -2q0 -2 -1 -3zM209 185q-1 2 -2 5q-1 2 -1.5 3.5t-1.5 4t-2 4.5h25q-11 -11 -18 -17zM263 235v27q2 0 4 -1l4 -2q2 -1 4 -1.5t4 -1.5l4 -2q-3 -3 -9.5 -9t-10.5 -10zM253 150
q26 0 43.5 18t17.5 44q0 37 -33 54q-14 6 -28 6q-16 0 -30 -8.5t-22.5 -22.5t-8.5 -30.5t8.5 -30t22.5 -22t30 -8.5zM859 216q0 25 -18 42.5t-43 17.5t-43 -18t-18 -43.5t18 -43t44 -17.5q16 1 30 9t22 22t8 31zM827 258q-3 -4 -9 -10l-10 -10v28q4 -1 10.5 -4t8.5 -4z
M842 187q-3 3 -9 9.5t-9 9.5h25q-1 -2 -2.5 -6.5t-2.5 -7t-2 -5.5zM809 191q3 -4 8.5 -10.5t7.5 -9.5q-13 -5 -17 -7v25q1 1 1 2zM753 189q0 2 -1 4.5t-2.5 6t-2.5 6.5h26q-1 -2 -3 -3.5t-3.5 -2.5t-2.5 -2l-4 -4q-1 -1 -3 -2.5t-4 -2.5zM842 243q0 -1 3 -7.5t4 -10.5h-24
l5 5l6 8q3 3 6 5zM769 172q15 16 19 20v-28q-10 4 -19 8zM772 225h-25q6 15 8 19q3 -3 8.5 -9.5t8.5 -9.5zM788 266v-28q-2 4 -7.5 11t-8.5 10q1 1 3.5 2t6 2.5t6.5 2.5zM798 205q-7 10 -7 11t2.5 3.5t4.5 2.5q6 -2 7 -7q0 -1 -7 -10z" />
    <glyph glyph-name="uniE63B" unicode="&#xe63b;" 
d="M72 373q-16 0 -28 -11.5t-12 -28t12 -28.5t28.5 -12t28 12t11.5 28q0 8 -3 15.5t-8.5 13t-12.5 8.5t-16 3zM188 615h470q8 0 15.5 3t13 8.5t8.5 13t3 15.5q0 7 -2 13t-6 11t-8.5 8.5t-11 5.5t-12.5 2h-470q-8 0 -15.5 -3t-12.5 -8.5t-8.5 -13t-3.5 -15.5q0 -16 12 -28
t28 -12zM72 530q-16 0 -28 -12t-12 -28q0 -11 5.5 -20.5t15 -14.5t20 -5t20 5t14.5 14.5t5 20.5q0 8 -3 15.5t-8.5 12.5t-12.5 8.5t-16 3.5zM987 46q-21 75 -76 135q-30 32 -59 50l-48 28q2 3 6 7t13.5 17.5t16 28t12 37t4.5 44.5t-7 43t-13 34.5t-14.5 24t-12.5 15.5l-5 4
q-24 24 -51 38t-53 18t-51.5 0t-48.5 -14t-42 -26h-370q-16 0 -28 -12t-12 -28q0 -11 5.5 -20.5t14.5 -14.5t20 -5h312q-14 -38 -11 -77h-301q-11 0 -20 -5.5t-14.5 -14.5t-5.5 -20t5.5 -20t14.5 -14.5t20 -5.5h328q11 -17 26 -34l-9 -4q-137 -70 -176 -213q-8 -25 -2 -49.5
t19.5 -43.5t36.5 -30.5t49 -11.5h422q57 0 88.5 42.5t16.5 96.5zM672 513q55 0 90 -35.5t35 -90.5q0 -54 -35.5 -89t-90.5 -35q-36 0 -64 16.5t-44 45t-16 63.5q1 37 16.5 65t44 44t64.5 16zM885 -34h-91h-122q-188 0 -208 -1q-27 0 -42.5 20.5t-7.5 45.5q45 142 180 184
q4 2 9 1.5t9 -1.5q60 -21 120 0q9 3 17 1q140 -44 183 -190q3 -10 0 -21t-9 -19.5t-16 -14.5t-22 -5zM72 695q-6 0 -12 -2t-11 -5.5t-8.5 -8.5t-6 -11t-2.5 -13q0 -16 12 -28t28.5 -12t28 12t11.5 28q0 8 -3 15.5t-8.5 13t-12.5 8.5t-16 3z" />
    <glyph glyph-name="uniE63C" unicode="&#xe63c;" 
d="M992 328v-114v140v158v140q0 11 -4 15.5t-15 4.5h-923q-10 0 -13.5 -3.5t-3.5 -13.5q0 -391 -1 -549q0 -5 1.5 -9t3.5 -8t6 -7q88 -89 142 -142q11 -11 26 -11h762q11 0 15 3.5t4 14.5v191v190zM920 -10q-629 -1 -682 -1q-14 0 -24 10q-45 46 -117 118q-9 9 -9 22v461
q0 9 3 12t13 3q434 1 816 0q5 0 8 -0.5t5 -2.5t2.5 -5.5t0.5 -8.5v-332v-260q0 -10 -3 -13t-13 -3zM204 432q-64 -31 -76 -103q-1 -9 3 -13q4 -3 12 -3h114h115q8 0 11.5 3.5t2.5 10.5q-7 55 -46 87q-6 4 -12.5 8.5t-13.5 8.5q-12 6 -21 -4l-24 -24q-11 -11 -22 0l-22 22
l-3 3l-1 1q-4 4 -8 4.5t-9 -1.5zM303 458q12 10 18 23.5t6 26.5q0 28 -13 47l-2 3q-18 23 -46.5 26t-50.5 -15q-6 -6 -11.5 -12.5t-8.5 -14t-4.5 -15t-1.5 -15.5q-1 -30 20 -51q13 -13 29.5 -18t33.5 -1t31 16zM660 505v-3v-2l2 -5q2 -4 6.5 -17t6.5 -19t6.5 -17t7 -18.5
t6.5 -17.5t7 -18.5t6 -17.5q6 -14 7 -15t17 -1h8q8 0 9.5 1t4.5 9q1 4 2 7q11 27 21.5 55.5t23.5 62.5q5 13 5 16q-1 3 -18 3q-7 0 -10.5 -2t-5.5 -9q-10 -30 -32 -86q0 -1 -6 -10l-7 9q-3 9 -7.5 20t-7.5 20t-7 19.5t-7 19.5q-2 4 -4 9l-1 5l-1 1q-2 4 -12 4h-9
q-10 0 -11 -3v0zM514 433q-3 -49 38 -72q18 -10 36 -10q22 0 44 16q12 8 12.5 12t-9.5 15q-4 3 -6.5 3t-6.5 -3q-2 -2 -5 -4l-6 -4q-3 -2 -5 -3q-6 -2 -11 -2.5t-10.5 0.5t-11.5 4q-14 6 -21.5 17t-7.5 22q-1 36 24 51q11 6 21 6q4 0 8 -0.5t8 -2.5l8 -4q11 -6 14 -6
q4 0 13 12q6 8 -2 15q-20 16 -46 16q-9 0 -20 -2q-25 -6 -40.5 -26t-17.5 -50zM244 16l3 7v58v58l-1 5q-2 3 -7 3h-37h-42h-37q-1 0 -5 -2q-1 0 -2 -1l1 -2v-1q0 -1 0.5 -2t1.5 -1q59 -60 118 -118v-1q1 -1 5 -2zM908 103q5 6 5 15q0 8 -5 15t-14.5 11t-21.5 4h-31h-37h-30
h-428l-11 -1q-1 -1 -2.5 -1t-3 -0.5t-2.5 -0.5h-1v-1l-6 -2q-8 -3 -13 -11q-5 -10 -2 -21q8 -22 37 -22h265h81h102h81q8 0 15 1.5t12.5 4.5t8.5 8h1v1zM886 260h-587h-141q-28 -1 -34 -24q-1 -3 -1 -6q0 -21 22 -27q7 -3 20 -3h358h53h55h51h54h151q26 0 35 19q2 6 2 12
q0 4 -1.5 8.5t-5 8.5t-8 6.5t-10.5 4t-13 1.5z" />
    <glyph glyph-name="uniE63D" unicode="&#xe63d;" 
d="M537 675q0 28 -20 47.5t-47 19.5q-28 0 -48 -19.5t-20 -47.5t20 -48t48 -20q27 0 47 19.5t20 47.5v1zM875 70l-93 136l-54 292l33 -12l62 -106h1q1 -1 2.5 -1.5t3.5 -1t4.5 -1.5t5.5 -1h4q2 0 4 1q3 1 4.5 4t2.5 6.5t1.5 7t0.5 5.5l1 2l-49 116l-135 83q-22 6 -43 -3
q-5 -2 -9 -4.5t-7 -4.5l-6 -6q-3 -2 -5 -4.5t-4 -4t-2 -2.5l-1 -1l-64 -128l-76 -24q-1 -8 -16 3q-66 47 -78 61q-3 3 -5.5 8.5t-3.5 11.5t-2 11.5t-1 8.5v3l-2 -2q3 23 -7.5 44.5t-31.5 35.5q-29 18 -61.5 11.5t-49.5 -34t-8.5 -59.5t37.5 -50q36 -23 75 -7h33
q23 -10 90 -59q-1 -2 -2.5 -6t-1.5 -12.5t5 -12.5l23 -11l103 18q21 10 25 17l24 58l24 -92l-100 -115l8 -214q0 -2 2 -5.5t8.5 -9t14.5 -5.5q3 0 6 0.5t5.5 1.5t5 2.5t4.5 3.5t4 3.5t4 3.5l2 2l2 2l7 177l79 84l2 2q1 1 5 2.5t8 -4.5q3 -5 5 -29.5t1 -47.5v-22
q-3 -11 11 -20q6 -3 37.5 -38.5t60.5 -68.5l29 -33q28 -10 36 4q4 7 4.5 14.5t-0.5 11.5zM323 507q-14 -22 -41 -24q-21 -2 -39 10q-21 13 -27.5 35.5t5.5 42.5q6 9 15 15t20 8t22.5 -0.5t22.5 -8.5q14 -9 21.5 -22.5t7.5 -28t-7 -27.5zM409 169l-252 -116q-2 -1 -3.5 -2
t-4 -5t-2.5 -8q0 -8 -2 -161q1 -13 12 -13q3 0 5.5 1.5t4.5 3.5l3 3q2 2 2 3l1 2v5l21 10v-13v-3h5v3v16l26 12v-12v-3h5v3v15l26 13v-11v-3h6v3v13l21 10v-12v-3h5v3v15l26 12v-16v-3h5v3v19l26 12v-15v-3h6v3v18l26 12v-13v-3h5v3v16l26 12v-12v-3h5v3v15h1l-1 2v25l1 1
l-1 2v19l1 1l-1 2v30l1 1l-1 2v25h1l-1 2v30l8 3l1 1q1 1 3 3.5t3 5t1 5.5t-2 5.5t-4.5 4t-4.5 1.5h-5h-3h-1zM194 -102l-21 -10v22l21 10v-22zM194 -74l-21 -10v21l21 10v-21zM173 -57v27l21 10v-27zM194 -14l-21 -10v22l21 9v-21zM194 13l-21 -9v27l21 10v-28zM225 -86
l-26 -13v21l26 13v-21zM225 -59l-26 -13v21l26 12v-20zM225 -33l-26 -12v27l26 12v-27zM225 0l-26 -12v22l26 12v-22zM225 28l-26 -12v27l26 12v-27zM256 -71l-26 -13v21l26 13v-21zM256 -44l-26 -12v20l26 12v-20zM256 -18l-26 -12v27l26 11v-26zM256 14l-26 -11v21l26 12
v-22zM256 42l-26 -12v27l26 12v-27zM283 -59l-21 -10v22l21 10v-22zM283 -31l-21 -10v19l21 9v-18zM283 -7l-21 -9v27l21 9v-27zM283 48v-22l-21 -9v21zM283 54l-21 -10v27l21 10v-27zM314 -44l-26 -12v21l26 13v-22zM314 -16l-26 -13v19l26 12v-18zM314 8l-26 -12v27l26 12
v-27zM314 41l-26 -12v21l13 6l13 6v-21zM314 68l-26 -12v27l26 12v-27zM345 -29l-26 -12v21l26 13v-22zM345 -1l-26 -13v18l26 12v-17zM345 22l-26 -12v27l26 12v-27zM345 55l-26 -12v22l26 12v-22zM345 83l-26 -12v26l26 12v-26zM377 -14l-26 -12v21l26 13v-22zM377 14
l-26 -13v18l26 11v-16zM377 36l-26 -11v26l26 12v-27zM377 69l-26 -12v22l26 12v-22zM377 97l-26 -12v26l26 12v-26zM408 1l-26 -12v21l26 13v-22zM408 29l-26 -13v17l26 12v-16zM408 51l-26 -12v27l26 12v-27zM408 84l-26 -12v21l26 12v-21zM408 111l-26 -12v26l26 12v-26z
M282 325q0 14 -9.5 23t-22.5 9q-9 0 -16.5 -4.5t-11.5 -11.5t-4 -16q0 -13 9.5 -22.5t22.5 -9.5t22.5 9t9.5 22v1z" />
    <glyph glyph-name="uniE63E" unicode="&#xe63e;" 
d="M431 302q-49 34 -80 69q-20 23 -32 41q-11 16 -29 50q-1 3 -1 14q-1 26 -1 142q0 7 -1 8t-7 1h-6h-8h-6q-5 0 -5 5v64q0 4 5 4h20h22h20h440q7 0 7 -7v-58q0 -8 -9 -8h-6h-6h-5q-6 0 -7 -1t-1 -6v-147q0 -3 -0.5 -6.5t-2 -6.5t-2.5 -5.5t-3 -6.5l-2 -4l-2 -4
q-1 -2 -2 -3.5t-2 -3.5t-2.5 -4t-2.5 -4t-2.5 -3.5t-2.5 -3.5q-4 -6 -6.5 -10t-6.5 -9t-7.5 -9.5t-7.5 -8.5q-17 -21 -35 -37q-4 -3 -53 -43l8 -7q28 -20 55 -46q27 -27 47 -55q3 -5 7 -11.5t8 -13.5t8 -12q10 -15 9 -43v-65v-67q0 -7 8 -7h9h11q6 1 6 -6v-62q0 -5 -5 -5
h-14h-12h-14h-462q-4 0 -5.5 1.5t-1.5 5.5v59q0 4 1.5 6t5.5 1h5h5h5h5q7 0 7 7v71v73q0 15 8 29q14 26 26 41q26 39 62 69q6 5 13 10.5t15.5 12t13.5 10.5zM512 627h-171q-7 0 -7 -7v-44v-50v-45q0 -7 2 -10q2 -4 5 -8t6 -9t5 -8q14 -24 40 -51q31 -33 69 -58q5 -3 11 -7
t10 -6.5t11.5 -6.5t10.5 -6q6 -3 7.5 -3t7.5 3l2 1l2 1q37 20 71 47q32 25 54 53q14 17 33 46q10 15 9 27t-1 49q0 16 0.5 45.5t0.5 37.5q0 7 -1 8t-8 1h-169zM512 -26h170q5 0 6.5 1.5t1.5 5.5q-1 8 -1 20q1 91 1 109t-9 33q-14 22 -28 40t-30.5 34t-34.5 30q-17 12 -38 26
q-7 5 -14 9t-16 8q-6 4 -12 3q-3 -1 -10 -5q-1 -1 -2 -1q-3 -2 -9.5 -6t-10.5 -6.5t-9.5 -6t-9.5 -6.5q-21 -15 -40 -31q-44 -38 -73 -87q-1 -1 -3.5 -5t-3.5 -5.5t-2 -5t-1 -6.5v-44v-52q0 -27 1 -44q0 -8 8 -8h169zM511 2h-35h-32h-38h-33q-6 0 -7 1t-1 7v17v17v18v17v17
v17q0 5 1 9.5t2.5 8.5t4.5 9q10 16 22 31t26 28q9 9 17 16t17 14t19 12q1 1 4.5 3t5.5 3t4.5 3t5 3t4.5 3l6 2q2 2 5 4q3 1 6 -1q18 -8 34.5 -18.5t31.5 -23.5q10 -9 18.5 -16.5t17.5 -17.5t15 -20q11 -15 24 -36q1 -2 1.5 -4.5t0.5 -4.5v-110q0 -7 -3 -8h-4h-77h-63z" />
    <glyph glyph-name="uniE63F" unicode="&#xe63f;" 
d="M890 36l-118 105v345v3q0 108 -76 184t-183 76q-53 0 -101 -20.5t-83 -55.5t-55.5 -83t-20.5 -101v-5v-345l-114 -103l-25 -44h282h69h84h82q-5 -45 -38.5 -75t-78.5 -30q-30 0 -56 13.5t-42.5 38t-19.5 53.5h-47q6 -40 29 -72.5t58.5 -51t76.5 -18.5q62 0 108.5 40.5
t54.5 101.5h234zM205 36l95 88v361q0 89 62.5 151t150.5 62t150 -62.5t62 -151.5v-360l94 -88h-614z" />
    <glyph glyph-name="uniE640" unicode="&#xe640;" 
d="M152 661h200v-200h-200v200zM152 401h200v-200h-200v200zM152 141h200v-200h-200v200zM412 661h200v-200h-200v200zM412 401h200v-200h-200v200zM412 141h200v-200h-200v200zM672 661h200v-200h-200v200zM672 401h200v-200h-200v200zM672 141h200v-200h-200v200z" />
    <glyph glyph-name="uniE641" unicode="&#xe641;" 
d="M149 -67q16 67 17 71q18 77 27 112q1 5 0 8.5t-5 7.5q-68 64 -87 145q-31 127 56 236q79 99 216 135q207 55 386 -44q103 -58 146 -152q68 -151 -39 -286q-77 -98 -218 -136q-143 -39 -285 4q-11 3 -22 -3q-41 -21 -182 -93q-1 0 -10 -5zM223 27q11 5 11 6q89 45 107 54
q7 3 15 1q137 -47 277 -11q120 32 191 115q19 22 32 47t19 51t5.5 52t-7.5 52.5t-21 51.5q-40 73 -123 118q-155 83 -335 39q-60 -15 -109 -43.5t-86 -72.5q-89 -109 -38 -233q24 -57 83 -105q4 -3 5 -6t0 -8q-1 -4 -2.5 -9t-2 -8.5t-2 -8.5t-2.5 -8q-1 -7 -17 -74zM525 302
h-55q-3 30 14 46q5 5 14 13t13 11q8 7 10 12q11 18 -10 24q-11 2 -19.5 -2.5t-11.5 -14.5q-1 -1 -4 -14q-16 2 -29 4t-26 3q-1 12 4 24.5t14 22.5t21 15q43 18 86 0q21 -9 31 -27.5t4 -38.5q-3 -11 -13 -23q-5 -5 -23 -20q-21 -17 -20 -35zM526 285v-51h-58v51h58z" />
    <glyph glyph-name="uniE642" unicode="&#xe642;" 
d="M390 254h-200q-33 0 -56.5 -23t-23.5 -56v-200q0 -33 23.5 -56.5t56.5 -23.5h200q33 0 56.5 23.5t23.5 56.5v200q0 46 -40 69q-19 10 -40 10zM410 -5q0 -17 -11.5 -28.5t-28.5 -11.5h-160q-16 0 -28 11.5t-12 28.5v160q0 16 12 28t28 12h160q17 0 28.5 -12t11.5 -28v-160
zM947 615l-71 65l-180 -213l-124 97l-64 -79l198 -155zM391 688h-200q-33 0 -56.5 -23.5t-23.5 -56.5v-200q0 -33 23.5 -56.5t56.5 -23.5h200q22 0 40.5 11t29 29.5t10.5 39.5v200q0 22 -10.5 40.5t-29 29t-40.5 10.5zM411 428q0 -16 -11.5 -28t-28.5 -12h-160q-16 0 -28 12
t-12 28v160q0 17 12 28.5t28 11.5h160q17 0 28.5 -11.5t11.5 -28.5v-160zM807 254h-200q-33 0 -56.5 -23t-23.5 -56v-200q0 -33 23.5 -56.5t56.5 -23.5h200q33 0 56.5 23.5t23.5 56.5v200q0 33 -23.5 56t-56.5 23zM827 -5q0 -11 -5.5 -20.5t-14.5 -14.5t-20 -5h-160
q-17 0 -28.5 11.5t-11.5 28.5v160q0 8 3 15.5t8.5 12.5t13 8.5t15.5 3.5h160q16 0 28 -12t12 -28v-160z" />
    <glyph glyph-name="uniE643" unicode="&#xe643;" 
d="M486 779h52q2 0 6.5 -0.5t7.5 -1t6 -0.5q48 -5 90.5 -17.5t83.5 -33.5t76 -51q226 -187 172 -471q-29 -154 -147 -259.5t-275 -120.5q-167 -15 -304 74q-91 59 -144.5 142.5t-70.5 191.5q-1 5 -1.5 10.5t-1.5 10t-1.5 11t-1.5 10.5v53q2 8 2 9q6 82 36 149
q109 244 372 288q1 1 43 6zM824 22q71 77 96 179t-3.5 209.5t-110.5 187.5q-129 127 -307.5 121.5t-298.5 -138.5q-57 -65 -84 -143.5t-23 -153t31.5 -143t75.5 -118.5q26 18 57.5 30t72 24t61.5 19l1 -2q0 -1 -1 -2v-4q-3 -45 7 -70q32 -78 91 -129q10 -8 23.5 -8t23.5 9
q29 25 51.5 57t38.5 70q5 14 6 24v55q11 -3 31.5 -9.5t36.5 -11.5t31 -10q60 -18 93 -43zM512 90q13 3 24 -0.5t19 -13.5q1 -2 2 -3.5t1 -3t-0.5 -3.5t-2.5 -3l-22 -22q-6 -5 -3 -13q4 -9 12.5 -30t13.5 -32q3 -5 2 -9t-4 -7l-7 -7q-5 -5 -8 -7.5t-7 -6.5t-8 -7t-7 -6
q-2 -2 -5 -2t-4 1l-18 16q-9 8 -21 20q-3 3 -3.5 6.5t1.5 7.5q5 10 13.5 31.5t13.5 32.5q3 6 -3 11l-5 4l-4 6q-3 2 -5 3.5t-5 5t-4 4.5q-4 5 1 12q17 21 43 15zM652 370q1 4 3 14.5t3.5 17.5t2.5 14q1 2 0.5 5.5t-1.5 5.5q-3 4 -5.5 7t-6 5t-7.5 3t-9 1q-56 -2 -99 7
q-63 14 -98 50q-1 2 -22 28q-26 -14 -46 -55q-2 -4 -3.5 -9.5t-1 -9.5t1 -9.5t1 -9t1 -9.5t1 -9t1.5 -9.5t1 -9.5q0 -1 5 -24q-2 2 -4 5.5t-3.5 6.5t-3.5 5q-9 10 -14 8q-10 -4 -11 -14q-4 -29 17 -54q12 -15 14 -23q6 -13 15 -28.5t15 -23.5t20 -26.5t18 -23.5q2 -2 8 -6
q35 -24 87 -18q22 2 39 11t27 27q1 1 7 9q1 2 9 12t10 13t8.5 11.5t9 13t7 12t7.5 14.5l6 14q1 4 5 7q18 15 22 43q2 13 -3 24q-2 5 -5.5 6.5t-7 0.5t-7.5 -6q-1 -1 -14 -24zM698 415q24 -5 25 -31q1 -41 -25 -69q-25 -27 -17 -61q8 -41 30 -69t60 -43q-3 -1 -8.5 -2.5
t-9 -3t-7.5 -2.5q-3 -1 -6 -1.5t-5.5 -1.5t-5.5 -2t-6 -1q-49 -11 -86 -4q-19 4 -35.5 12t-30.5 20q-6 5 -12 3q-16 -5 -31.5 -7t-31 0t-31.5 6q-6 2 -11 -2q-47 -40 -117 -34q-39 4 -83 20q1 0 2 1q2 1 3 2q66 26 83 104q0 2 1 7t1 7q4 14 -1 25.5t-15 23.5q-30 34 -26 75
q1 13 6 19t16 9q-1 6 -5 19.5t-6.5 24t-3.5 20.5q-10 79 51 128q74 59 174 51q25 -2 49 -9t46 -18.5t42 -27.5q39 -31 48 -86.5t-19 -97.5z" />
    </font>
</defs>
</svg>
